<?xml version="1.0" encoding="utf-8"?>
<!-- Generator: Adobe Illustrator 21.0.0, SVG Export Plug-In . SVG Version: 6.00 Build 0)  -->
<svg version="1.1" id="Layer_1" xmlns="http://www.w3.org/2000/svg" xmlns:xlink="http://www.w3.org/1999/xlink" x="0px" y="0px"
	 viewBox="0 0 2040 108" style="enable-background:new 0 0 2040 108;" xml:space="preserve">
<style type="text/css">
	.st0{fill:#FFFFFF;}
</style>
<path class="st0" d="M2040,26.5c-11.8,2-25.4,3-36.2,7.6c-19.4,8.4-38,19.2-56.1,30.3c-23.4,14.4-46.3,29.5-73.2,36.2
	c-53.8,13.3-106.4,8.1-157.7-12.5c-9.5-3.8-18.9-7.9-28.2-12.3c-33.7-16.2-67.4-16.3-101.2-0.5c-25,11.7-50.4,22.1-77.5,27.4
	c-64.1,12.6-124,3.3-178.3-35.6c-22.2-15.9-45-30.6-71.7-37.4c-46.8-11.9-92.5-6.5-137.3,10.2c-28.1,10.4-55.8,22.1-84.3,31.4
	c-39.3,12.8-79.7,12.5-119.9,5.2c-30.1-5.5-59.9-12.7-89.8-19.6c-21.2-4.9-41.5-2.1-61.5,5.9c-23.7,9.4-47,20.4-71.4,27.1
	c-55.9,15.4-111.2,13.4-163.8-13.9c-14.9-7.7-28.7-17.6-42.5-27.2c-36-24.8-75.6-36.5-118.9-34.3c-33.4,1.7-65.1,11.6-96.3,23.6
	c-26.3,10.2-52.7,20.7-79.8,28c-38.2,10.3-77.2,7.6-115.7-0.4c-22.2-4.6-44.2-10.4-66.3-15.1c-3.8-0.6-7.7-0.8-11.6-0.6H0V0h2040
	V26.5z"/>
</svg>
