<?xml version="1.0" encoding="utf-8"?>
<!-- Generator: Adobe Illustrator 16.0.0, SVG Export Plug-In . SVG Version: 6.00 Build 0)  -->
<!DOCTYPE svg PUBLIC "-//W3C//DTD SVG 1.1//EN" "http://www.w3.org/Graphics/SVG/1.1/DTD/svg11.dtd">
<svg version="1.1" id="Layer_1" xmlns="http://www.w3.org/2000/svg" xmlns:xlink="http://www.w3.org/1999/xlink" x="0px" y="0px"
	 width="512px" height="512px" viewBox="0 0 512 512" enable-background="new 0 0 512 512" xml:space="preserve">
<path fill="#FFEE99" d="M341,14.469C314.402,5.109,285.801,0,256,0C144.414,0,49.52,71.402,14.469,171
	C5.109,197.598,0,226.199,0,256c0,111.586,71.402,206.48,171,241.531C197.598,506.891,226.199,512,256,512
	c111.586,0,206.48-71.402,241.531-171C506.891,314.402,512,285.801,512,256C512,144.414,440.602,49.52,341,14.469z M171,256
	c0-46.945,38.055-85,85-85s85,38.055,85,85s-38.055,85-85,85S171,302.945,171,256z"/>
<path fill="#FF0075" d="M256,171H14.469C5.109,197.598,0,226.199,0,256c0,111.586,71.402,206.48,171,241.531V256
	C171,209.055,209.055,171,256,171z"/>
<path fill="#6730E3" d="M341,256V14.469C314.402,5.109,285.801,0,256,0C144.414,0,49.52,71.402,14.469,171H256
	C302.945,171,341,209.055,341,256z"/>
<path fill="#FFD500" d="M171,256v241.531C197.598,506.891,226.199,512,256,512c111.586,0,206.48-71.402,241.531-171H256
	C209.055,341,171,302.945,171,256z"/>
<path fill="#5327CC" d="M341,256V14.469C314.402,5.109,285.801,0,256,0v171C302.945,171,341,209.055,341,256z"/>
<path fill="#FFC300" d="M256,341v171c111.586,0,206.48-71.402,241.531-171H256z"/>
<path fill="#0A0A48" d="M341,14.469V256c0,46.945-38.055,85-85,85h241.531C506.891,314.402,512,285.801,512,256
	C512,144.414,440.602,49.52,341,14.469z"/>
</svg>
