<?xml version="1.0" encoding="utf-8"?>
<!-- Generator: Adobe Illustrator 21.0.0, SVG Export Plug-In . SVG Version: 6.00 Build 0)  -->
<svg version="1.1" id="Layer_1" xmlns="http://www.w3.org/2000/svg" xmlns:xlink="http://www.w3.org/1999/xlink" x="0px" y="0px"
	 viewBox="0 0 2040 96" style="enable-background:new 0 0 2040 96;" xml:space="preserve">
<style type="text/css">
	.st0{fill:#FFFFFF;}
</style>
<path class="st0" d="M2040,23.5c-11.8,1.7-25.4,2.6-36.2,6.8c-19.4,7.4-38,17-56.1,27c-23.4,12.8-46.3,26.2-73.2,32.1
	c-53.8,11.9-106.4,7.2-157.7-11.1c-9.5-3.4-18.9-7-28.2-11C1655,53,1621.3,52.9,1587.5,67c-25,10.4-50.4,19.6-77.5,24.4
	c-64.1,11.2-124,2.9-178.3-31.7c-22.2-14.1-45-27.2-71.7-33.2c-46.8-10.6-92.5-5.8-137.3,9c-28.1,9.3-55.8,19.6-84.3,27.9
	C999,74.8,958.6,74.5,918.4,68c-30.1-4.9-59.9-11.3-89.8-17.4c-21.2-4.3-41.5-1.8-61.5,5.3c-23.7,8.4-47,18.1-71.4,24.1
	c-55.9,13.7-111.2,11.9-163.8-12.3C517,60.8,503.2,52,489.3,43.5c-36-22-75.6-32.5-118.9-30.5c-33.4,1.6-65.1,10.3-96.3,21
	c-26.3,9-52.7,18.4-79.8,24.9c-38.2,9.1-77.2,6.8-115.7-0.3c-22.2-4.1-44.2-9.2-66.3-13.5c-3.8-0.6-7.7-0.7-11.6-0.5H0V0h2039.9
	L2040,23.5z"/>
</svg>
