<?xml version="1.0" encoding="utf-8"?>
<!-- Generator: Adobe Illustrator 16.0.0, SVG Export Plug-In . SVG Version: 6.00 Build 0)  -->
<!DOCTYPE svg PUBLIC "-//W3C//DTD SVG 1.1//EN" "http://www.w3.org/Graphics/SVG/1.1/DTD/svg11.dtd">
<svg version="1.1" id="Layer_1" xmlns="http://www.w3.org/2000/svg" xmlns:xlink="http://www.w3.org/1999/xlink" x="0px" y="0px"
	 width="612px" height="183.398px" viewBox="0 0 612 183.398" enable-background="new 0 0 612 183.398" xml:space="preserve">
<path fill="#FFFFFF" d="M611.799,157.119c0,1.011-3.032,2.981-3.789,3.487c-17.329,11.421-35.567,2.324-50.471-8.137
	c-29.503-20.67-67.09-13.493-100.03-7.429c-11.163,2.072-22.633,4.447-33.948,2.324c-15.914-2.981-27.786-15.817-39.406-25.976
	c-13.488-11.825-28.442-22.792-43.951-31.737c-6.517-3.739-13.236-7.075-20.261-9.753c-38.293-14.656-77.193,0.96-114.982,9.551
	c-2.022,0.455-4.042,0.91-6.012,1.314c-43.092,9.349-67.041-22.742-93.716-50.284C90.482,25.268,71.586,14.302,49.055,7.378
	C37.891,3.942,26.322,1.769,14.399,0.96C9.598,0.606,4.799,0.303,0,0c0,61.099,0,122.249,0,183.398c204,0,407.95,0,611.898,0
	C611.799,183.398,611.799,157.119,611.799,157.119z"/>
</svg>
