<?xml version="1.0" encoding="utf-8"?>
<!-- Generator: Adobe Illustrator 21.0.0, SVG Export Plug-In . SVG Version: 6.00 Build 0)  -->
<svg version="1.1" id="Layer_1" xmlns="http://www.w3.org/2000/svg" xmlns:xlink="http://www.w3.org/1999/xlink" x="0px" y="0px"
	 viewBox="0 0 1359.8 286" style="enable-background:new 0 0 1359.8 286;" xml:space="preserve">
<style type="text/css">
	.st0{opacity:0.5;fill:url(#SVGID_1_);}
</style>
<linearGradient id="SVGID_1_" gradientUnits="userSpaceOnUse" x1="-1.250217e-04" y1="141.9821" x2="1358.83" y2="141.9821">
	<stop  offset="0" style="stop-color:#B552FF"/>
	<stop  offset="1" style="stop-color:#682FEF"/>
</linearGradient>
<path class="st0" d="M1358.8,0c-1.2,11.9-1.7,23.9-3.6,35.7c-5.6,35.6-19,66.9-50.3,87.8c-17.6,11.7-37.3,17.2-58.2,19.1
	c-49.2,4.4-95.7-8-141.7-23.3c-34.3-11.5-67.1-26.6-100-41.6c-50.8-23.2-103.7-39.7-159-48.3c-24.2-3.8-48.4-6.7-72.9-6.8
	c-18.5-0.1-37-1.1-55.4,0.3c-26.6,2.1-53.3,4.9-79.6,9.3c-95.4,16.1-184.7,50.7-271.1,92.9c-63.7,31.2-126.4,64.4-189.7,96.4
	C135,242.9,92.2,263.6,46,275.6c-15,3.9-30.7,5.6-46,8.3C0,189.3,0,94.7,0,0C452.9,0,905.9,0,1358.8,0z"/>
</svg>
