<?xml version="1.0" encoding="utf-8"?>
<!-- Generator: Adobe Illustrator 21.0.0, SVG Export Plug-In . SVG Version: 6.00 Build 0)  -->
<svg version="1.1" id="Layer_1" xmlns="http://www.w3.org/2000/svg" xmlns:xlink="http://www.w3.org/1999/xlink" x="0px" y="0px"
	 viewBox="0 0 126.5 276.9" style="enable-background:new 0 0 126.5 276.9;" xml:space="preserve">
<style type="text/css">
	.st0{opacity:0.4;fill:#D6D8E5;enable-background:new    ;}
	.st1{fill:#FFCEA9;}
	.st2{fill:#EDEDED;}
	.st3{fill:#2B2A30;}
	.st4{fill:#9C73FF;}
	.st5{fill:#8C50FF;}
	.st6{fill:#F4F4F4;}
	.st7{fill:#3A2C6D;}
	.st8{fill:#B1B4C4;}
	.st9{fill:#616E84;}
	.st10{fill:#757B89;}
	.st11{fill:#20232D;}
	.st12{fill:#2B303F;}
	.st13{opacity:0.5;fill:url(#SVGID_1_);enable-background:new    ;}
	.st14{opacity:0.1;fill:#FFFFFF;enable-background:new    ;}
</style>
<title>Online_shopping_SVG</title>
<g id="Слой_2">
	<g id="Слой_1-2">
		<g id="Men_2">
			<ellipse class="st0" cx="43.6" cy="251.7" rx="43.6" ry="25.2"/>
			<path id="_Контур_" class="st1" d="M11.6,63.2C11.1,67.4,6.1,85.7,7.2,92s18.4,16.7,18.4,16.7L27.9,98l-9.6-9.4l2.6-17.7
				L11.6,63.2z"/>
			<path id="_Контур_2" class="st2" d="M25,45.2c-3.5-1.6-7.6-0.4-9.6,2.9c-2.5,4.2-5.2,18.6-5.4,21.1c0,0,3.6,4.9,8.9,4.1
				L25,45.2z"/>
			<path class="st3" d="M44.7,249c3.8,1,7.8,0.6,11.2-1.4c2.7,0.1,17.3-6.2,19.3-0.9c1.7,4.6-4.6,8.9-8,9.7
				c-7.4,1.8-12.8,5.5-15.8,6.1c-2.2,0.5-5.1,0.8-6.8-1C42.5,259.4,42.6,251.7,44.7,249z"/>
			<path class="st4" d="M51.4,261.2c3-0.6,8.4-4.3,15.8-6.1c2.8-0.7,7.7-3.8,8.2-7.5c0.7,4.2-5,8-8.2,8.8
				c-7.4,1.8-12.8,5.5-15.8,6.1c-2.2,0.5-5.1,0.8-6.8-1c-0.5-0.5-0.8-1.1-1-1.8C46.2,261.9,49.2,261.7,51.4,261.2z"/>
			<path class="st3" d="M21,238.3c3.8,1,7.8,0.6,11.2-1.4c2.7,0.1,17.3-6.2,19.3-0.9c1.7,4.6-4.6,8.9-8,9.7
				c-7.4,1.8-12.8,5.5-15.8,6.1c-2.2,0.5-5.1,0.8-6.8-1C18.8,248.8,18.9,241.1,21,238.3z"/>
			<path class="st4" d="M27.7,250.6c3-0.6,8.4-4.3,15.8-6.1c2.8-0.7,7.7-3.8,8.2-7.5c0.7,4.2-5,8-8.2,8.8
				c-7.4,1.8-12.8,5.5-15.8,6.1c-2.2,0.5-5.1,0.8-6.8-1c-0.5-0.5-0.8-1.1-1-1.8C22.5,251.2,25.5,251,27.7,250.6z"/>
			<path id="_Контур_3" class="st5" d="M20.7,198.6c0.6-5.4,1.8-10.8,3.4-16c0,0-1-13.8-1.5-26.9c-0.6-14.8-5.7-28-1.7-39.8
				l45.8,10.2c0,0-2.8,59.3-3.4,66.4c-0.3,5.6-1,11.1-2,16.6c-2.1,11.5-5.5,38.9-5.5,38.9c-4.8,2.8-11.2,1.3-11.2,1.3
				s0.3-34.6,0.7-42.9c0.4-10.1,0.7-9.4,0.7-9.4l-1.5-25.1l-1-12.5c0,0-1.3,9.2-2.1,17.4c-0.7,7.2-2.5,13.6-4.4,27
				c-1.7,11.6-4.4,34.8-4.4,34.8c-4.9,2.8-11.4,0.5-11.4,0.5S19.4,208.7,20.7,198.6z"/>
			<path id="_Контур_4" class="st1" d="M27.4,45.4c3.5,0.2,6.1,1.1,6.5,0c0.4-1.8,0.6-3.6,0.8-5.5c-0.4-1-0.8-2.1-0.8-2.1
				c-4.4-2.7-5.8-7.4-6.4-13c-1-9.4,4.1-17.7,13.6-18.7c8.9-0.9,15.4,5.3,17.1,13.9c0.9,4.2,2.8,12.2,0.3,19.2c-1.4,3.9-3.2,7-5,7.6
				c-1.8,0-3.5-0.2-5.2-0.5l0,0c0,0-0.5,2.6-0.8,4.3s-0.2,2.6,3.2,4.6s-5.1,6.3-10.6,5.9s-11.7-3.7-13.4-7.3
				C24.9,50,25,45.3,27.4,45.4z"/>
			<path id="_Контур_5" class="st6" d="M32.5,46c-1,2.4,1.5,5.4,8,7.4s7.2-0.6,7.2-0.6s9.6,4.4,12.8,6.6
				c3.9,2.8,5.7,10.7,6.2,24.1c0.6,15.6,0.7,38.6,0.2,42.6c0,0-7.4,7.3-16.8,6.6s-25.3-9.1-29.1-15.5c0.1-13.6,1.7-15.9-0.5-23.7
				c-5.1-18-7.7-25.4-5.3-37.3c2-9.9,4.9-11.1,8.8-11C26.7,45.2,29.6,45.5,32.5,46z"/>
			<path id="_Контур_6" class="st1" d="M81.4,96.4c-7.7,1.9-9.5-2.9-10.6-7c-2.5-9.8-3.8-18.6-5.6-24.1
				c-2.2-6.5-4.4-7.6-7.6-8.9c-3.7-1.5-6.9,1.6-5.7,10c1.5,9.9,3.4,16.8,7.1,28.4c1,3,3.1,8.5,6.4,11.1c4,3.2,10,3.1,19.1,0.8
				c3.9-1,8.1-3.3,15.4-6.7c2-0.9,3.5-1.5,7.3-3.3s7.7-4.7,9.7-7.6s1.6-4.7,1.2-5.3c-0.5-0.8-0.8-0.2-1.8,1c-1.5,2-3.4,3.8-5.6,5.1
				c0,0,2.4-2.5,3.8-4.2c1.2-1.5,2.2-3.1,2.9-4.8c0.7-1.7-0.7-3.9-1.8-2.8s-1.6,2.4-3.6,4.8c-1.1,1.3-2.3,2.4-3.6,3.4
				c1.2-1.7,2.3-3.4,3.3-5.3c1.3-2.6-3-1.2-5.4,1.3c-1.8,1.8-3.3,2.9-3.3,2.4s-3.5,3.2-5.2,5C95.8,92,88.8,94.5,81.4,96.4z"/>
			<path id="_Контур_7" class="st2" d="M54.8,55.1c5.2-0.8,8.8,1.6,11.1,9.4c2.3,7.8,3.9,14.2,3.9,14.2c-2,3-5.1,5-8.7,5.7
				c-6.2,1.5-8.4-1.5-8.4-1.5s-1.7-8.2-2.8-13.8S48.4,56,54.8,55.1z"/>
			<path class="st7" d="M58,18.9c0,0,8.2-12.4-9.5-14.9c-12.7-1.8-20.9,6.4-21.9,15.2c-0.9,8.5,4.3,17.3,8.1,20.8
				c1.8,0.7,5.8,1,11-1.3c0.2-2.3,0.3-4.6,0.3-6.9C46,31.7,39.8,18.7,58,18.9z"/>
		</g>
		<path class="st1" d="M99.4,86.6c0,0-2-3.6-0.7-4.6s3.1,2.5,3.5,3.9s-0.1-0.4-0.1-0.4s-1.4-4.1-0.5-4.9s2.1,1,3.3,3.6
			s0.3-0.2,0.3-0.2s-2-4.1-1.1-4.7c1.1-0.8,3,1.7,4.1,3.9s-1.5,4.8-1.5,4.8L99.4,86.6z"/>
		<g id="Mobile">
			<path class="st8" d="M103.3,93.2l-7.5-4.3c-0.6-0.4-0.6-1,0.2-1.4L114,77c0.8-0.4,1.7-0.5,2.5-0.1l7.5,4.3c0.6,0.4,0.6,1-0.2,1.4
				L105.7,93C104.9,93.5,104,93.5,103.3,93.2z"/>
			<polygon class="st8" points="95.3,88.2 95.3,87.5 96.2,87.8 			"/>
			<polygon class="st8" points="124.4,81.8 124.4,81.1 123.8,81.5 			"/>
			<path class="st9" d="M103.3,92.6l-7.5-4.3c-0.6-0.4-0.6-1,0.2-1.4l18-10.4c0.8-0.4,1.7-0.5,2.5-0.1l7.5,4.3
				c0.6,0.4,0.6,1-0.2,1.4l-18.1,10.4C104.9,92.9,104,92.9,103.3,92.6z"/>
			<ellipse transform="matrix(0.867 -0.4983 0.4983 0.867 -32.0768 60.3296)" class="st10" cx="97" cy="90.3" rx="0.1" ry="0.1"/>
			<ellipse transform="matrix(0.866 -0.5 0.5 0.866 -31.6202 60.4352)" class="st10" cx="97" cy="89.2" rx="0.1" ry="0.1"/>
			<ellipse transform="matrix(0.866 -0.5 0.5 0.866 -31.6783 60.6419)" class="st10" cx="97.3" cy="89.4" rx="0.1" ry="0.1"/>
			<ellipse transform="matrix(0.866 -0.5 0.5 0.866 -31.7351 60.8537)" class="st10" cx="97.7" cy="89.6" rx="0.1" ry="0.1"/>
			<ellipse transform="matrix(0.866 -0.5 0.5 0.866 -32.2136 62.6384)" class="st10" cx="100.8" cy="91.4" rx="0.1" ry="0.1"/>
			<ellipse transform="matrix(0.866 -0.5 0.5 0.866 -32.268 62.8415)" class="st10" cx="101.1" cy="91.6" rx="0.1" ry="0.1"/>
			<ellipse transform="matrix(0.866 -0.5 0.5 0.866 -32.3248 63.0533)" class="st10" cx="101.5" cy="91.8" rx="0.1" ry="0.1"/>
			<ellipse transform="matrix(0.867 -0.4983 0.4983 0.867 -32.896 63.3626)" class="st10" cx="102.3" cy="93.3" rx="0.1" ry="0.1"/>
			<path class="st10" d="M99.7,91l-1-0.6c-0.1-0.1-0.1-0.1-0.1-0.2l0,0c0-0.1,0.1-0.1,0.1-0.1l1,0.6c0.1,0,0.1,0.1,0.1,0.2l0,0
				C99.8,91,99.8,91,99.7,91z"/>
			<path class="st10" d="M122.2,83.4l-0.9,0.5c-0.1,0-0.1,0-0.1-0.1l0,0c0-0.1,0-0.2,0.1-0.2l0.9-0.5c0.1,0,0.1,0,0.1,0.1l0,0
				C122.3,83.3,122.2,83.4,122.2,83.4z"/>
			<path class="st10" d="M120.8,84.2l-0.9,0.5c-0.1,0-0.1,0-0.1-0.1l0,0c0-0.1,0-0.2,0.1-0.2l0.9-0.5c0.1,0,0.1,0,0.1,0.1l0,0
				C120.9,84.1,120.8,84.2,120.8,84.2z"/>
			<path class="st11" d="M103.3,92.5l-7.5-4.3c-0.6-0.4-0.6-1,0.2-1.4l18-10.5c0.8-0.4,1.7-0.5,2.5-0.1l7.5,4.3
				c0.6,0.4,0.6,1-0.2,1.4l-18.1,10.4C104.9,92.8,104,92.8,103.3,92.5z"/>
			<path class="st12" d="M123.2,80.7l-2.9-1.7l0,0c-0.4,0.2-0.9,0.2-1.3,0c-0.2-0.1-0.3-0.3-0.2-0.5c0-0.1,0.1-0.2,0.2-0.2l0,0
				l-2.9-1.7c-0.5-0.3-1.1-0.3-1.6,0L96.9,86.7c-0.3,0.1-0.4,0.4-0.3,0.6c0,0.1,0.2,0.3,0.3,0.3l7.1,4.1c0.5,0.3,1.1,0.3,1.6,0
				l17.6-10.2c0.3-0.1,0.4-0.3,0.3-0.6C123.5,80.8,123.3,80.7,123.2,80.7z"/>
			
				<linearGradient id="SVGID_1_" gradientUnits="userSpaceOnUse" x1="-2146.3281" y1="-2557.604" x2="-2146.3281" y2="-2538.384" gradientTransform="matrix(0.87 0.5 1 -0.58 4513.7217 -313.7751)">
				<stop  offset="0.21" style="stop-color:#FFFFFF;stop-opacity:0"/>
				<stop  offset="1" style="stop-color:#FFFFFF;stop-opacity:0.2"/>
			</linearGradient>
			<path class="st13" d="M123.2,80.7l-2.9-1.7l0,0c-0.4,0.2-0.9,0.2-1.3,0c-0.2-0.1-0.3-0.3-0.2-0.5c0-0.1,0.1-0.2,0.2-0.2l0,0
				l-2.9-1.7c-0.5-0.3-1.1-0.3-1.6,0L96.9,86.7c-0.3,0.1-0.4,0.4-0.3,0.6c0,0.1,0.2,0.3,0.3,0.3l7.1,4.1c0.5,0.3,1.1,0.3,1.6,0
				l17.6-10.2c0.3-0.1,0.4-0.3,0.3-0.6C123.5,80.8,123.3,80.7,123.2,80.7z"/>
			<ellipse class="st12" cx="119.4" cy="78.7" rx="0.3" ry="0.2"/>
			<path class="st14" d="M119.3,78.8c-0.1,0-0.1-0.1,0-0.1c0.1,0,0.1,0,0.2,0c0,0,0,0,0,0.1c0,0,0,0,0,0
				C119.5,78.8,119.4,78.8,119.3,78.8z"/>
		</g>
		<path class="st1" d="M114.9,91.4c0,0,4-3.6,3.8-8.3c-0.2-3.3-2.2-0.9-2.2-0.9l-2,3.6c0,0-2,2.6-3.8,3.2c-1.4,0.1-2.8,0.3-4.2,0.6
			c-2.5,0.5-4.9,3.5-4.9,3.5l3.2,2.4L114.9,91.4z"/>
	</g>
</g>
</svg>
