<?xml version="1.0" encoding="utf-8"?>
<!-- Generator: Adobe Illustrator 21.0.0, SVG Export Plug-In . SVG Version: 6.00 Build 0)  -->
<svg version="1.1" id="Layer_1" xmlns="http://www.w3.org/2000/svg" xmlns:xlink="http://www.w3.org/1999/xlink" x="0px" y="0px"
	 viewBox="0 0 345.1 379.3" style="enable-background:new 0 0 345.1 379.3;" xml:space="preserve">
<style type="text/css">
	.st0{opacity:0.4;fill:#D6D8E5;enable-background:new    ;}
	.st1{fill:#EFDA86;}
	.st2{fill:#D1B66B;}
	.st3{fill:#E2C979;}
	.st4{opacity:0.1;enable-background:new    ;}
	.st5{fill:#B1B4C4;}
	.st6{fill:#C65555;}
	.st7{fill:#FF6C6C;}
	.st8{fill:#DD6262;}
	.st9{fill:#20232D;}
	.st10{fill:#D9DAE2;}
	.st11{fill:#EFF0F9;}
	.st12{fill:#E26161;}
	.st13{fill:#F9CB07;}
</style>
<title>Online_shopping_SVG</title>
<g id="Слой_2">
	<g id="Слой_1-2">
		<polygon class="st0" points="83.6,229.6 48.9,209.7 86.1,188.3 120.7,208.2 		"/>
		<polygon class="st1" points="87.4,185 50.3,163.5 87.4,142.1 124.6,163.5 		"/>
		<polygon class="st2" points="122.1,207.4 87.4,227.4 87.4,187.4 122.1,167.4 		"/>
		<polygon class="st3" points="87.4,227.4 52.8,207.4 52.8,167.4 87.4,187.4 		"/>
		<polygon class="st4" points="52.8,167.4 52.8,177.8 87.4,197.6 87.4,187.4 		"/>
		<polygon class="st4" points="122.1,167.4 122.1,178.6 87.4,197.6 87.4,187.4 		"/>
		<polygon class="st3" points="50.3,163.5 50.3,174.6 87.4,195.8 87.4,185 		"/>
		<polygon class="st2" points="87.4,195.8 124.6,175.5 124.6,163.5 87.4,185 		"/>
		<polygon class="st5" points="231.4,313.1 238.9,309.3 231.7,297 		"/>
		<polygon class="st0" points="296.8,344.8 257.3,322 262.2,319.2 301.7,342 		"/>
		<polygon class="st6" points="312,336.2 272.4,313.3 277.4,268.1 307.1,285.3 		"/>
		<polygon class="st7" points="301.7,342 262.1,319.1 267,273.9 296.8,291 		"/>
		<polygon class="st8" points="301.7,342 312,336.2 307.1,285.3 296.8,291 		"/>
		<polygon class="st6" points="267,273.9 277.4,268.1 276.1,279.1 		"/>
		<path class="st9" d="M289.3,286.6l-1.8-1.1c0-4.3-2.5-9.2-5.6-11s-5.6,0.2-5.6,4.5l-1.8-1.1c0-5.4,3.3-7.9,7.4-5.6
			S289.3,281.2,289.3,286.6z"/>
		<path class="st9" d="M299,280.7l-1.8-1.1c0-4.3-2.5-9.2-5.6-11s-5.6,0.2-5.6,4.5l-1.8-1.1c0-5.4,3.3-7.9,7.4-5.6
			S299,275.3,299,280.7z"/>
		<polygon class="st0" points="261.3,373.8 204.4,340.9 211.5,336.8 268.4,369.6 		"/>
		<polygon class="st6" points="283.2,361.4 226.1,328.4 233.3,263.3 276.1,288 		"/>
		<polygon class="st7" points="268.4,369.6 211.3,336.6 218.4,271.5 261.3,296.2 		"/>
		<polygon class="st8" points="268.4,369.6 283.2,361.4 276.1,288 261.3,296.2 		"/>
		<polygon class="st6" points="218.4,271.5 233.3,263.3 231.5,279.1 		"/>
		<path class="st9" d="M250.5,289.9l-2.6-1.6c0-6.1-3.6-13.2-8.1-15.8s-8.1,0.3-8.1,6.5l-2.6-1.5c0-7.8,4.8-11.4,10.7-8
			S250.5,282.1,250.5,289.9z"/>
		<path class="st9" d="M264.5,281.4l-2.6-1.5c0-6.1-3.6-13.2-8.1-15.8s-8.1,0.4-8.1,6.5l-2.6-1.5c0-7.8,4.8-11.4,10.7-8
			S264.5,273.6,264.5,281.4z"/>
		<polygon class="st0" points="25.5,230.9 4.1,218.7 28.1,204.8 49.5,217.1 		"/>
		<polygon class="st1" points="28.9,202.8 6,189.5 28.9,176.3 51.9,189.5 		"/>
		<polygon class="st2" points="50.3,216.6 28.9,228.9 28.9,204.2 50.3,191.9 		"/>
		<polygon class="st3" points="28.9,228.9 7.6,216.6 7.6,191.9 28.9,204.2 		"/>
		<polygon class="st4" points="7.6,191.9 7.6,198.4 28.9,210.6 28.9,204.3 		"/>
		<polygon class="st4" points="50.3,191.9 50.3,198.8 28.9,210.6 28.9,204.3 		"/>
		<polygon class="st3" points="6,189.5 6,196.4 28.9,209.4 28.9,202.8 		"/>
		<polygon class="st2" points="28.9,209.4 51.9,196.9 51.9,189.5 28.9,202.8 		"/>
		<polygon class="st0" points="305.3,372.7 286,361.6 307.7,349 327,360.1 		"/>
		<polygon class="st1" points="308.4,347.2 287.7,335.2 308.4,323.3 329.1,335.2 		"/>
		<polygon class="st2" points="327.7,359.7 308.4,370.8 308.4,348.5 327.7,337.4 		"/>
		<polygon class="st3" points="308.4,370.8 289.1,359.7 289.1,337.4 308.4,348.5 		"/>
		<polygon class="st4" points="289.1,337.4 289.1,343.2 308.4,354.2 308.4,348.6 		"/>
		<polygon class="st4" points="327.7,337.4 327.7,343.6 308.4,354.2 308.4,348.6 		"/>
		<polygon class="st3" points="287.7,335.2 287.7,341.4 308.4,353.2 308.4,347.2 		"/>
		<polygon class="st2" points="308.4,353.2 329.1,341.9 329.1,335.2 308.4,347.2 		"/>
		<polygon class="st0" points="77.4,263.9 36.3,240.1 41.4,237.2 82.5,260.9 		"/>
		<polygon class="st6" points="93.3,254.9 52,231.1 57.1,184 88.1,201.9 		"/>
		<polygon class="st7" points="82.5,260.9 41.3,237 46.4,190 77.4,207.9 		"/>
		<polygon class="st8" points="82.5,260.9 93.3,254.9 88.1,201.9 77.4,207.9 		"/>
		<polygon class="st6" points="46.4,190 57.1,184 55.9,195.5 		"/>
		<path class="st9" d="M69.6,203.3l-1.9-1.1c0-4.4-2.6-9.6-5.8-11.4s-5.8,0.3-5.8,4.7l-1.9-1.1c0-5.6,3.5-8.3,7.7-5.8
			S69.6,197.6,69.6,203.3z"/>
		<path class="st9" d="M79.7,197.1l-1.9-1.1c0-4.4-2.6-9.6-5.8-11.4s-5.8,0.3-5.8,4.7l-1.9-1.1c0-5.6,3.5-8.3,7.7-5.8
			S79.7,191.5,79.7,197.1z"/>
		<path class="st10" d="M340.7,88.9l-23.5-13.6c-0.8-0.5-1.7-0.7-2.6-0.4l0,0c-0.2,0.1-0.4,0.2-0.5,0.3l-4.3,2.5l3,4.2v22.3
			c0,3.3,2,7.1,4.5,8.5l20.7,12l0.7,4.7c0.1-0.1,3.7-2.1,4.8-2.8c0.1-0.1,0.2-0.1,0.3-0.2l0,0l0,0c1-0.9,1.5-2.2,1.4-3.5V97.4
			C345.1,94.2,343.1,90.3,340.7,88.9z"/>
		<path class="st11" d="M335.8,129.1l-23.5-13.6c-2.5-1.4-4.5-5.2-4.5-8.5V81.5c0-3.3,2-4.8,4.5-3.4l23.5,13.6
			c2.5,1.4,4.5,5.2,4.5,8.5v25.5C340.3,129.1,338.3,130.6,335.8,129.1z"/>
		<path class="st12" d="M314.8,91.1c0-1.4,0.4-2.4,1.2-2.8s1.9-0.3,3.2,0.5c1.3,0.8,2.4,1.9,3.2,3.2c0.8,1.3,1.2,2.8,1.2,4.3v1.2
			c0,1.4-0.4,2.4-1.2,2.8s-1.9,0.2-3.2-0.5c-1.3-0.8-2.4-1.9-3.2-3.2c-0.8-1.3-1.2-2.8-1.2-4.3V91.1z M317.5,93.9
			c0,0.6,0.2,1.3,0.5,1.8c0.3,0.6,0.7,1,1.3,1.3c0.5,0.3,0.9,0.3,1.2,0.1c0.4-0.3,0.5-0.8,0.5-1.3v-1.2c0-0.6-0.2-1.3-0.5-1.8
			c-0.3-0.6-0.7-1-1.3-1.3c-0.3-0.3-0.8-0.3-1.2-0.1c-0.3,0.2-0.5,0.7-0.5,1.4L317.5,93.9z M320,111.3l-2-2.4l10-12.6l2,2.4
			L320,111.3z M324.5,109.9c0-1.4,0.4-2.4,1.2-2.8s1.9-0.2,3.2,0.5c1.3,0.8,2.4,1.9,3.2,3.2c0.8,1.3,1.2,2.8,1.2,4.3v1.2
			c0,1.4-0.4,2.4-1.2,2.8s-1.9,0.3-3.2-0.5c-1.3-0.8-2.4-1.9-3.2-3.2c-0.8-1.3-1.2-2.7-1.2-4.3V109.9z M327.2,112.7
			c0,0.6,0.2,1.3,0.5,1.8c0.3,0.6,0.7,1,1.3,1.4c1.1,0.7,1.7,0.3,1.7-1.2v-1.2c0-0.6-0.2-1.3-0.5-1.8c-0.3-0.5-0.7-1-1.3-1.3
			c-0.4-0.3-0.8-0.3-1.3-0.1c-0.4,0.3-0.6,0.8-0.5,1.3V112.7z"/>
		<path class="st10" d="M40.1,17.7L16.6,4.1c-0.8-0.5-1.7-0.7-2.6-0.4l0,0c-0.2,0.1-0.4,0.2-0.5,0.3L9.1,6.5l3,4.2V33
			c0,3.3,2,7.1,4.4,8.5l20.7,12l0.7,4.7l4.8-2.8c0.1-0.1,0.2-0.1,0.3-0.2l0,0l0,0c1-0.9,1.5-2.2,1.4-3.5V26.2
			C44.5,22.9,42.5,19.1,40.1,17.7z"/>
		<path class="st11" d="M35.2,57.9L11.7,44.3c-2.5-1.4-4.5-5.2-4.5-8.5V10.3c0-3.3,2-4.8,4.5-3.4l23.5,13.6c2.5,1.4,4.4,5.2,4.4,8.5
			v25.5C39.7,57.8,37.7,59.3,35.2,57.9z"/>
		<polygon class="st13" points="23.5,20.3 26.6,29.6 33.8,34.9 28.6,37.8 29.8,46.6 23.5,39.1 17.1,39.3 18.3,31.8 13.1,23 
			20.3,25.9 		"/>
	</g>
</g>
</svg>
