<?xml version="1.0" encoding="utf-8"?>
<!-- Generator: Adobe Illustrator 21.0.0, SVG Export Plug-In . SVG Version: 6.00 Build 0)  -->
<svg version="1.1" id="Layer_1" xmlns="http://www.w3.org/2000/svg" xmlns:xlink="http://www.w3.org/1999/xlink" x="0px" y="0px"
	 viewBox="0 0 151.3 376" style="enable-background:new 0 0 151.3 376;" xml:space="preserve">
<style type="text/css">
	.st0{opacity:0.4;fill:#D6D8E5;enable-background:new    ;}
	.st1{fill:#B1B4C4;}
	.st2{fill:#616E84;}
	.st3{fill:#20232D;}
	.st4{fill:#FFFFFF;}
	.st5{fill:#2B303F;}
	.st6{opacity:0.1;fill:#FFFFFF;enable-background:new    ;}
	.st7{fill:#757B89;}
	.st8{fill:#E9EAF2;}
	.st9{fill:#D9DAE2;}
	.st10{opacity:0.1;enable-background:new    ;}
	.st11{fill:#8C50FF;}
	.st12{fill:#F4F5F9;}
	.st13{fill:#3A2C6D;}
	.st14{opacity:0.15;}
</style>
<title>Online_shopping_SVG</title>
<g id="Слой_2">
	<g id="Слой_1-2">
		<path class="st0" d="M124.3,373L13.6,309.2c-2-1.1-2.6-3.6-1.5-5.6c0.4-0.7,1-1.2,1.7-1.6l13.9-7.2c1.2-0.6,2.7-0.6,3.9,0.1
			l114.4,65.9c2,1.1,2.6,3.6,1.5,5.6c-0.4,0.7-1,1.2-1.7,1.6l-10.1,5.2C132.2,375.1,127.9,375,124.3,373z"/>
		<path class="st1" d="M131.1,361l-94.4-54.5c-8-4.6-14.5-17-14.5-27.6V15.7C22.3,5,28.8,0.1,36.8,4.7l94.4,54.5
			c8,4.6,14.5,17,14.5,27.7v263.2C145.6,360.7,139.1,365.6,131.1,361z"/>
		<polygon class="st1" points="20.8,7.4 27.7,3.8 26.3,13.9 		"/>
		<path class="st2" d="M125.1,364l-94.4-54.5c-8-4.6-14.5-17-14.5-27.6V18.7C16.3,8,22.8,3.1,30.8,7.7l94.4,54.5
			c8,4.6,14.5,17,14.5,27.7v263.2C139.6,363.7,133.1,368.6,125.1,364z"/>
		<path class="st3" d="M138.6,90.5v263.2c0,10.7-6.5,15.6-14.5,11l-37-21.4l-11.5-6.6l-45.8-26.5c-8-4.6-14.5-17-14.5-27.6V19.4
			c0-10.7,6.5-15.6,14.5-11l94.4,54.5C132.1,67.5,138.6,79.9,138.6,90.5z"/>
		<path class="st4" d="M131.8,87.9v256.3c0,6.5-4.5,9.1-10.1,5.8l-5-2.9l-17.1-9.9l-7.4-4.3l-2.6-1.5l-0.9-0.5l-6.4-3.6l-18.5-10.6
			l0,0l-7.6-4.4l0,0l-3.1-1.8l-18.4-10.6l-2.5-1.5c-5.6-3.2-10.1-11.1-10.1-17.5V24.5c0-6.5,4.5-9.1,10.1-5.9L69.1,40v0.1
			c0.3,5.5,3.2,10.6,7.9,13.7c4.4,2.5,7.9,0.5,7.9-4.5c0,0,0-0.1,0-0.1l36.9,21.3C127.2,73.6,131.8,81.4,131.8,87.9z"/>
		<ellipse transform="matrix(0.867 -0.4983 0.4983 0.867 -13.344 45.1774)" class="st5" cx="78" cy="47.6" rx="2.4" ry="4.2"/>
		<path class="st6" d="M76.9,48.8c-0.7-0.5-1.2-1.3-1.3-2.2c0-0.8,0.6-1.1,1.3-0.7c0.7,0.5,1.2,1.3,1.3,2.2
			C78.2,48.9,77.6,49.3,76.9,48.8z"/>
		<path class="st7" d="M142.4,125.2L142.4,125.2c-0.8,0.4-1.4,0-1.4-1v-11.3c0-1.1,0.5-2,1.4-2.7l0,0c0.8-0.4,1.4,0,1.4,1.1v11.2
			C143.8,123.6,143.3,124.6,142.4,125.2z"/>
		<path class="st7" d="M142.4,143.6L142.4,143.6c-0.8,0.4-1.4,0-1.4-1.1v-11.2c0-1.1,0.5-2,1.4-2.7l0,0c0.8-0.4,1.4,0,1.4,1.1v11.2
			C143.8,142,143.3,142.9,142.4,143.6z"/>
		<path class="st8" d="M111.2,175.5l-71-41c-3-1.7-5.5-6.4-5.5-10.4v-80c0-4,2.4-5.9,5.5-4.1l71,41c3,1.7,5.5,6.4,5.5,10.4v80
			C116.6,175.4,114.2,177.3,111.2,175.5z"/>
		<path class="st8" d="M111.2,282.6l-71-41c-3-1.7-5.5-6.4-5.5-10.4v-80c0-4,2.4-5.9,5.5-4.1l71,41c3,1.7,5.5,6.4,5.5,10.4v80
			C116.6,282.5,114.2,284.3,111.2,282.6z"/>
		<path class="st8" d="M116.6,305.5v41.7L92.2,333l-2.6-1.5l-0.9-0.5l-6.4-3.6l-18.5-10.6l0,0l-7.6-4.4l-3.1-1.8l-18.4-10.6v-41.7
			c0-4,2.4-5.9,5.5-4.1l71,41C114.2,296.8,116.6,301.4,116.6,305.5z"/>
		<path class="st9" d="M97,109.5l-9.7-16.8C87,92,86.4,91.4,85.8,91l0,0c-0.1-0.1-0.2-0.1-0.3-0.1c-0.1-0.1-0.2-0.1-0.3-0.2
			l-2.7-1.6c-0.7-0.4-1.4-0.4-1.8,0.1c-0.9,1-2.8,0.9-4.9-0.3c-2.2-1.2-3.9-3.1-4.9-5.4c-0.4-0.9-1-1.7-1.8-2.2l-2.7-1.5
			c-0.1-0.1-0.2-0.1-0.3-0.1c-0.5-0.5-1.2-0.6-1.8-0.3l-9.7,5.6c-0.9,0.5-0.9,2.1,0,3.6l5.3,9.2c0.4,0.7,0.9,1.2,1.5,1.6
			c0.5,0.3,1,0.4,1.6,0.2l1.2-0.7v22.5c0.1,1.5,0.9,2.9,2.2,3.8l18.9,11c1.2,0.7,2.2,0.1,2.2-1.3v-22.5l1.2,2.1
			c0.4,0.7,0.9,1.2,1.5,1.6l0,0c0.5,0.3,1,0.4,1.5,0.2l5.3-3.1C97.9,112.5,97.9,111,97,109.5z"/>
		<path class="st9" d="M92.9,212.3l-34.4-19.8c-0.9,2.9-1.4,6-1.4,9.1V223l15.7,9.1l2.9-16.5l2.9,19.8l15.7,9.1V223
			C94.3,219.4,93.8,215.8,92.9,212.3z"/>
		<polygon class="st9" points="92.9,205.6 58.6,185.8 58.6,190.8 92.9,210.6 		"/>
		<path class="st9" d="M99.5,337.3l-7.4-4.3l-2.6-1.5l-0.9-0.5l-6.4-3.6l-18.5-10.6l0,0l-7.6-4.4v-10.6c0-1,0.7-1.5,1.6-1
			c0.7,0.5,1.2,1.2,1.5,2l0.3,1c1,3.3,3.2,6.1,6.1,7.9c3.7,2.1,6.7,0.4,6.7-3.9v-1.3c0-1.3,0.9-1.9,2-1.2c0.5,0.3,1,0.8,1.3,1.3
			l2.9,4.5l-3.3,1.9l1.8,3.1l3.5-2l1.5,2.3l-3.1,1.8l1.8,3.1l3.3-1.9l1.5,2.3l-3,1.7l1.8,3.1l3.2-1.8c1.9,2.7,4.3,5.1,7.1,6.8
			l0.6,0.3C97.3,333.2,98.7,335.1,99.5,337.3z"/>
		<polygon class="st10" points="122.7,101.9 34.1,51 34.1,19.6 122.7,70.4 		"/>
		<polygon class="st11" points="15.8,48.3 4.9,42 34.4,20 45.3,26.3 		"/>
		<polygon class="st12" points="26.8,54.6 15.8,48.3 45.3,26.3 56.2,32.6 		"/>
		<polygon class="st11" points="37.7,60.9 26.8,54.6 56.2,32.6 67.2,38.9 		"/>
		<polygon class="st12" points="48.6,67.2 37.7,60.9 67.2,38.9 78.1,45.2 		"/>
		<polygon class="st11" points="59.5,73.5 48.6,67.2 78.1,45.2 89,51.5 		"/>
		<polygon class="st12" points="70.4,79.8 59.5,73.5 89,51.5 99.9,57.8 		"/>
		<polygon class="st11" points="81.4,86.2 70.4,79.8 99.9,57.8 110.8,64.1 		"/>
		<polygon class="st12" points="92.3,92.4 81.4,86.2 110.8,64.1 121.8,70.4 		"/>
		<path class="st13" d="M10.5,51.4c3,1.7,5.5,0.3,5.5-3.2L5,41.9C5.2,45.8,7.2,49.3,10.5,51.4z"/>
		<path class="st12" d="M21.4,57.7c3,1.8,5.5,0.3,5.5-3.2l-10.9-6.3C16.1,52.1,18.2,55.6,21.4,57.7z"/>
		<path class="st13" d="M32.3,64c3,1.7,5.5,0.3,5.5-3.2l-10.9-6.3C27.1,58.4,29.1,61.9,32.3,64z"/>
		<path class="st12" d="M43.2,70.3c3,1.7,5.5,0.3,5.5-3.2l-10.9-6.3C38,64.7,40,68.2,43.2,70.3z"/>
		<path class="st13" d="M54.1,76.6c3,1.7,5.5,0.3,5.5-3.2l-10.9-6.3C48.9,71,50.9,74.5,54.1,76.6z"/>
		<path class="st12" d="M65.1,82.9c3,1.7,5.5,0.3,5.5-3.2l-10.9-6.3C59.8,77.3,61.8,80.8,65.1,82.9z"/>
		<path class="st13" d="M76,89.2c3,1.7,5.5,0.3,5.5-3.2l-10.9-6.3C70.7,83.6,72.8,87.1,76,89.2z"/>
		<path class="st12" d="M86.9,95.5c3,1.7,5.5,0.3,5.5-3.2l-10.9-6.3C81.7,89.9,83.7,93.4,86.9,95.5z"/>
		<g class="st14">
			<path d="M21.4,57.7c3,1.8,5.5,0.3,5.5-3.2l-10.9-6.3C16.1,52.1,18.2,55.6,21.4,57.7z"/>
			<path d="M43.2,70.3c3,1.7,5.5,0.3,5.5-3.2l-10.9-6.3C38,64.7,40,68.2,43.2,70.3z"/>
			<path d="M65.1,82.9c3,1.7,5.5,0.3,5.5-3.2l-10.9-6.3C59.8,77.3,61.8,80.8,65.1,82.9z"/>
			<path d="M86.9,95.5c3,1.7,5.5,0.3,5.5-3.2l-10.9-6.3C81.7,89.9,83.7,93.4,86.9,95.5z"/>
		</g>
	</g>
</g>
</svg>
