<?xml version="1.0" encoding="utf-8"?>
<!-- Generator: Adobe Illustrator 21.0.0, SVG Export Plug-In . SVG Version: 6.00 Build 0)  -->
<svg version="1.1" id="Layer_1" xmlns="http://www.w3.org/2000/svg" xmlns:xlink="http://www.w3.org/1999/xlink" x="0px" y="0px"
	 viewBox="0 0 1494.5 520.1" style="enable-background:new 0 0 1494.5 520.1;" xml:space="preserve">
<style type="text/css">
	.st0{opacity:0.5;fill:#9886E2;}
</style>
<path class="st0" d="M0,520.1c26.4-16.6,55.8-26.1,86-31.9c48.3-9.3,96.9-17.6,145.6-24.5c91.2-13.1,183-23.2,272.1-47.5
	c55.2-15.1,108.3-35,155.4-68c38.3-26.9,67.4-61.1,86.3-103.8c25.2-57,56.3-110.6,100.6-155.7c39.1-39.8,85-68,141.3-77.2
	c49.6-8.1,97.6-0.7,144.4,16.4c62.9,22.9,117.6,59,168.6,101c71.5,58.9,132.5,127.3,187.2,201.3c2,2.7,4.6,5.1,7,7.6
	c0,60.8,0,121.7,0,182.5C996.4,520.1,498.2,520.1,0,520.1z"/>
</svg>
