<?xml version="1.0" encoding="utf-8"?>
<!-- Generator: Adobe Illustrator 16.0.0, SVG Export Plug-In . SVG Version: 6.00 Build 0)  -->
<!DOCTYPE svg PUBLIC "-//W3C//DTD SVG 1.1//EN" "http://www.w3.org/Graphics/SVG/1.1/DTD/svg11.dtd">
<svg version="1.1" id="Layer_1" xmlns="http://www.w3.org/2000/svg" xmlns:xlink="http://www.w3.org/1999/xlink" x="0px" y="0px"
	 width="512px" height="512px" viewBox="0 0 512 512" enable-background="new 0 0 512 512" xml:space="preserve">
<path fill="#FFD500" d="M256,511.934c-8.422,0-16.84-1.91-24.516-5.73L8.313,395.082C3.219,392.543,0,387.344,0,381.652
	s3.219-10.891,8.313-13.43l223.172-111.121c15.352-7.645,33.68-7.645,49.031,0l223.168,111.121c5.098,2.539,8.316,7.738,8.316,13.43
	s-3.223,10.891-8.316,13.43L280.516,506.203C272.84,510.023,264.422,511.934,256,511.934z"/>
<path fill="#FFC300" d="M503.688,368.223L280.516,257.102c-7.676-3.82-16.094-5.73-24.516-5.73v260.563
	c8.422,0,16.84-1.91,24.516-5.73l223.172-111.121c5.094-2.539,8.313-7.738,8.313-13.43S508.781,370.762,503.688,368.223z"/>
<path fill="#FF0075" d="M256,386.25c-8.422,0-16.84-1.91-24.516-5.734L8.313,269.395C3.219,266.859,0,261.66,0,255.969
	s3.219-10.891,8.313-13.43l223.172-111.121c15.352-7.645,33.68-7.648,49.031,0l223.168,111.121c5.098,2.539,8.316,7.738,8.316,13.43
	c0,5.688-3.219,10.891-8.313,13.426L280.516,380.516C272.84,384.34,264.418,386.25,256,386.25z M238.172,144.844h0.008H238.172z"/>
<path fill="#DC0069" d="M503.688,242.539L280.516,131.418c-7.676-3.82-16.094-5.734-24.516-5.734V386.25
	c8.422,0,16.84-1.91,24.516-5.73l223.172-111.125c5.094-2.535,8.313-7.734,8.313-13.426S508.781,245.078,503.688,242.539z"/>
<path fill="#6730E3" d="M256,260.566c-8.422,0-16.84-1.914-24.516-5.734L8.313,143.711C3.219,141.176,0,135.973,0,130.285
	c0-5.691,3.219-10.895,8.313-13.43L231.484,5.73c15.352-7.641,33.68-7.641,49.031,0l223.168,111.125
	c5.098,2.535,8.316,7.738,8.316,13.43c0,5.688-3.223,10.891-8.316,13.426L280.516,254.832
	C272.84,258.652,264.422,260.566,256,260.566z"/>
<path fill="#5327CC" d="M503.688,116.855L280.516,5.73C272.84,1.91,264.422,0,256,0v260.566c8.422,0,16.84-1.914,24.516-5.734
	l223.172-111.121c5.094-2.535,8.313-7.738,8.313-13.426C512,124.594,508.781,119.391,503.688,116.855z"/>
</svg>
