<?xml version="1.0" encoding="utf-8"?>
<!-- Generator: Adobe Illustrator 21.0.0, SVG Export Plug-In . SVG Version: 6.00 Build 0)  -->
<svg version="1.1" id="Layer_1" xmlns="http://www.w3.org/2000/svg" xmlns:xlink="http://www.w3.org/1999/xlink" x="0px" y="0px"
	 viewBox="0 0 141.5 310.7" style="enable-background:new 0 0 141.5 310.7;" xml:space="preserve">
<style type="text/css">
	.st0{opacity:0.4;fill:#D6D8E5;enable-background:new    ;}
	.st1{fill:#FFCEA9;}
	.st2{fill:#EDEDED;}
	.st3{fill:#38226D;}
	.st4{fill:#9C73FF;}
	.st5{fill:#8C50FF;}
	.st6{fill:#F4F4F4;}
	.st7{fill:#3A2C6D;}
</style>
<title>Telemedicine_SVG</title>
<g id="Men_2">
	<ellipse class="st0" cx="52.2" cy="280.3" rx="49.5" ry="28.6"/>
	<path id="_Контур_6" class="st1" d="M16.9,68.5c-0.6,4.8-6.3,25.6-5.1,32.7s20.8,19,20.8,19l2.7-12.2L24.6,97.4l2.9-20.1
		L16.9,68.5z"/>
	<path id="_Контур_7" class="st2" d="M32.1,48.1c-2.8-1.2-8-1.5-10.9,3.3s-5.9,21.2-6.1,24c0,0,4.1,5.6,10.1,4.7L32.1,48.1z"
		/>
	<path class="st3" d="M54.5,279.4c4.3,1.2,8.8,0.6,12.7-1.5c3.1,0.1,19.6-7,21.9-1c2,5.2-5.2,10.1-9.1,11c-8.4,2-14.6,6.2-17.9,6.9
		c-2.5,0.5-5.8,0.9-7.8-1.1C51.9,291.3,52.1,282.5,54.5,279.4z"/>
	<path class="st4" d="M62.1,293.3c3.4-0.7,9.6-4.9,17.9-6.9c3.2-0.8,8.8-4.3,9.3-8.5c0.7,4.8-5.7,9.1-9.3,9.9
		c-8.4,2-14.6,6.2-17.9,6.9c-2.5,0.5-5.8,0.9-7.8-1.1c-0.5-0.6-0.9-1.3-1.1-2C56.2,294.1,59.6,293.8,62.1,293.3z"/>
	<path class="st3" d="M27.6,267.3c4.3,1.2,8.8,0.6,12.7-1.5c3.1,0.1,19.6-7,21.9-1c2,5.2-5.2,10.1-9.1,11c-8.4,2-14.6,6.2-17.9,6.9
		c-2.5,0.5-5.8,0.9-7.8-1.1C25,279.2,25.2,270.5,27.6,267.3z"/>
	<path class="st4" d="M35.2,281.2c3.4-0.7,9.6-4.9,17.9-6.9c3.2-0.8,8.8-4.3,9.3-8.5c0.8,4.8-5.7,9.1-9.3,9.9
		c-8.4,2-14.6,6.2-17.9,6.9c-2.5,0.5-5.8,0.9-7.8-1.1c-0.5-0.6-0.9-1.3-1.1-2C29.2,282,32.7,281.8,35.2,281.2z"/>
	<path id="_Контур_8" class="st5" d="M27.3,222.3c0.7-6.2,2-12.2,3.8-18.2c0,0-1.1-15.7-1.7-30.5c-0.6-16.9-6.5-31.7-1.9-45.2
		L79.5,140c0,0-3.1,67.3-3.9,75.4c-0.4,6.3-1.2,12.6-2.3,18.9c-2.4,13.1-6.2,44.1-6.2,44.1c-5.5,3.2-12.7,1.4-12.7,1.4
		s0.4-39.3,0.8-48.7c0.4-11.5,0.8-10.6,0.8-10.6l-1.7-28.6l-1.1-14.2c0,0-1.4,10.5-2.4,19.8c-0.8,8.1-2.8,15.5-5,30.6
		c-1.9,13.1-5,39.5-5,39.5c-5.5,3.2-13,0.5-13,0.5S25.8,233.7,27.3,222.3z"/>
	<path id="_Контур_9" class="st1" d="M34.9,48.3c4,0.2,6.9,1.2,7.4,0c0.4-2,0.7-4.1,0.9-6.2c-0.5-1.1-0.9-2.4-0.9-2.4
		c-5-3.1-6.6-8.4-7.2-14.7C34,14.3,39.8,5,50.5,3.8c10.1-1,17.5,6,19.4,15.8c1.1,4.8,3.2,13.9,0.3,21.8c-1.6,4.4-3.7,7.9-5.7,8.6
		c-2-0.1-4-0.2-5.9-0.5l0,0c0,0-0.5,3-0.9,4.9s-0.2,2.9,3.6,5.3s-5.8,7.1-12,6.7S36,62,34.1,58C32,53.5,32.1,48.2,34.9,48.3z"/>
	<path id="_Контур_10" class="st6" d="M40.6,48.9c-1.1,2.7,1.7,6.1,9.1,8.4s8.1-0.7,8.1-0.7s10.9,5,14.5,7.4
		c4.5,3.1,6.4,12.2,7.1,27.4c0.7,17.7,0.8,43.9,0.2,48.4c0,0-8.4,8.3-19,7.4s-28.7-10.3-33-17.6c0.1-15.5,1.9-18-0.6-26.9
		c-5.7-20.4-8.8-28.8-6-42.4c2.3-11.2,5.5-12.6,9.9-12.5C34.2,48.2,37.4,48.5,40.6,48.9z"/>
	<path id="_Контур_11" class="st1" d="M96.2,106.2c-8.8,2.2-10.8-3.3-12-7.9c-2.8-11.1-4.3-21.1-6.4-27.4
		c-2.4-7.4-5-8.6-8.6-10c-4.2-1.7-7.9,1.9-6.5,11.3c1.7,11.2,3.9,19,8,32.3c1.1,3.5,3.5,9.6,7.2,12.5c4.5,3.7,11.3,3.5,21.6,0.9
		c4.4-1.1,9.2-3.7,17.5-7.6c2.2-1,4-1.7,8.3-3.7s8.8-5.3,11-8.6s2.5-4.8,2.1-5.5c-0.6-0.9-1.6-0.7-2.8,0.6c-1.7,2.3-3.9,4.3-6.3,5.8
		c0,0,2.8-2.9,4.3-4.7c1.3-1.6,2.5-3.5,3.3-5.4c0.8-1.9-0.8-4.5-2.1-3.1s-1.8,2.7-4.1,5.5c-1.2,1.4-2.6,2.7-4.1,3.9
		c1.4-1.9,2.7-3.9,3.8-6c1.4-2.9,1.4-4.4,1.4-5.4s-1.5-2.2-2.8-0.3c-1.2,1.7-2,4.3-4.7,7.2c-2,2.1-3.7,3.3-3.8,2.7s1.2-1.7,1.9-4.1
		s0-5-1.3-5.3s-1.1-0.2-2.2,2.1s-2.7,3.9-4,7.3c-1.1,2.9-1.6,4.1-3.6,6.2C109.3,101.5,104.5,104.1,96.2,106.2z"/>
	<path id="_Контур_12" class="st2" d="M65.9,59.3c5.9-0.9,10,1.8,12.6,10.6s4.4,16.2,4.4,16.2c-2.3,3.3-5.8,5.7-9.8,6.5
		c-7,1.7-9.5-1.6-9.5-1.6s-2-9.3-3.2-15.6S58.7,60.4,65.9,59.3z"/>
	<path class="st7" d="M69.6,18.2c0,0,9.3-14.1-10.8-16.9C44.4-0.8,35.1,8.5,34,18.6c-1,9.6,4.9,19.6,9.2,23.6
		c2.1,0.8,6.6,1.2,12.5-1.5c0.2-2.6,0.3-5.3,0.3-7.9C55.9,32.8,48.9,18,69.6,18.2z"/>
</g>
</svg>
