<?xml version="1.0" encoding="utf-8"?>
<!-- Generator: Adobe Illustrator 21.0.0, SVG Export Plug-In . SVG Version: 6.00 Build 0)  -->
<svg version="1.1" id="Layer_1" xmlns="http://www.w3.org/2000/svg" xmlns:xlink="http://www.w3.org/1999/xlink" x="0px" y="0px"
	 viewBox="0 0 506 280" style="enable-background:new 0 0 506 280;" xml:space="preserve">
<style type="text/css">
	.st0{opacity:0.4;fill:#D6D8E5;enable-background:new    ;}
	.st1{fill:#D6D8E5;}
	.st2{fill:#E4E6EF;}
	.st3{fill:#28221C;}
	.st4{fill:#99B524;}
	.st5{fill:#A6CE28;}
	.st6{fill:#D9DCE8;}
	.st7{fill:#EFF1F9;}
	.st8{fill:#D3D6E2;}
	.st9{fill:#C5C8D3;}
</style>
<title>Telemedicine_SVG</title>
<ellipse class="st0" cx="58" cy="123.1" rx="24" ry="13.9"/>
<ellipse class="st1" cx="61.4" cy="120.5" rx="24" ry="13.9"/>
<polygon class="st1" points="29.3,73.2 37.7,121.5 85.3,121.5 93.5,73.5 "/>
<ellipse class="st2" cx="61.4" cy="72.6" rx="32.1" ry="18.5"/>
<path class="st3" d="M61.4,87c-7.9,0-15.2-1.7-20.7-4.9c-4.7-2.7-7.4-6.2-7.4-9.6s2.7-6.9,7.4-9.6c5.5-3.1,12.8-4.9,20.7-4.9
	s15.2,1.7,20.7,4.9c4.7,2.7,7.4,6.2,7.4,9.6s-2.7,6.9-7.4,9.6C76.6,85.3,69.3,87,61.4,87z"/>
<path class="st4" d="M75.2,58c0,0-0.6-39.2-13.8-53C45.3,19.2,47.8,58,47.8,58l13.8,25l0,0C63.4,83.1,75.2,58,75.2,58z"/>
<path class="st5" d="M61.6,83c0,0-7.3-46.9-34.6-64.6C27,18.5,22.1,82.7,61.6,83z"/>
<path class="st5" d="M61.4,83c0,0,6.6-46,33.2-62.6C94.5,20.4,100.8,82.7,61.4,83z"/>
<ellipse class="st0" cx="345.8" cy="260.9" rx="24" ry="13.8"/>
<ellipse class="st6" cx="349.4" cy="260" rx="24" ry="13.8"/>
<path class="st6" d="M325.4,259.8v-6.9l7.6,2.5L325.4,259.8z"/>
<polygon class="st6" points="373.3,253.3 373.3,259.6 364.5,257.8 "/>
<ellipse class="st7" cx="349.4" cy="252.9" rx="24" ry="13.8"/>
<polygon class="st8" points="333.7,263.3 331.1,261.8 364.9,242.3 367.5,243.8 "/>
<polygon class="st9" points="331.1,261.8 331.1,268.9 333.5,270.3 333.8,270.5 333.8,263.3 "/>
<ellipse class="st0" cx="27.3" cy="235.8" rx="24" ry="13.8"/>
<ellipse class="st6" cx="30.9" cy="235" rx="24" ry="13.8"/>
<path class="st6" d="M6.9,234.7v-7l7.6,2.6L6.9,234.7z"/>
<polygon class="st6" points="54.8,228.3 54.8,234.5 46,232.8 "/>
<ellipse class="st7" cx="30.9" cy="227.8" rx="24" ry="13.8"/>
<polygon class="st8" points="15.2,238.3 12.6,236.8 46.4,217.3 49,218.8 "/>
<polygon class="st9" points="12.6,236.8 12.6,243.9 14.9,245.3 15.3,245.4 15.3,238.3 "/>
<ellipse class="st0" cx="472.2" cy="222" rx="24" ry="13.8"/>
<ellipse class="st6" cx="475.8" cy="221.2" rx="24" ry="13.8"/>
<path class="st6" d="M451.8,220.9c0-0.1,0-7,0-7l7.6,2.6L451.8,220.9z"/>
<polygon class="st6" points="499.7,214.5 499.7,220.7 491,219 "/>
<ellipse class="st7" cx="475.8" cy="214" rx="24" ry="13.8"/>
<polygon class="st8" points="460.1,224.5 457.5,223 491.3,203.5 493.9,205 "/>
<polygon class="st9" points="457.5,223 457.5,230.1 459.9,231.5 460.2,231.6 460.2,224.5 "/>
</svg>
