<?xml version="1.0" encoding="utf-8"?>
<!-- Generator: Adobe Illustrator 21.0.0, SVG Export Plug-In . SVG Version: 6.00 Build 0)  -->
<svg version="1.1" id="Layer_1" xmlns="http://www.w3.org/2000/svg" xmlns:xlink="http://www.w3.org/1999/xlink" x="0px" y="0px"
	 viewBox="0 0 156.3 419" style="enable-background:new 0 0 156.3 419;" xml:space="preserve">
<style type="text/css">
	.st0{fill:#B1B4C4;}
	.st1{fill:#616E84;}
	.st2{fill:#20232D;}
	.st3{fill:#FFFFFF;}
	.st4{fill:#2B303F;}
	.st5{opacity:0.1;fill:#FFFFFF;enable-background:new    ;}
	.st6{fill:#757B89;}
	.st7{fill:#E9EAF2;}
	.st8{fill:#CED0DB;}
	.st9{fill:#2B2A30;}
	.st10{fill:#FFCEA9;}
	.st11{fill:#F4F4F4;}
	.st12{fill:#8C50FF;}
	.st13{opacity:0.1;enable-background:new    ;}
</style>
<title>Telemedicine_SVG</title>
<g id="Слой_2">
	<g id="Слой_1-2">
		<path class="st0" d="M137.1,409.3L29.2,347c-9.1-5.3-16.5-19.4-16.5-31.6V14.5C12.7,2.3,20.1-3.3,29.2,2l107.9,62.3
			c9.1,5.3,16.5,19.4,16.5,31.6v300.9C153.6,409,146.2,414.6,137.1,409.3z"/>
		<polygon class="st0" points="138.9,414.8 147.5,410.4 139.3,396.4 		"/>
		<polygon class="st0" points="11,5 18.8,0.9 17.3,12.5 		"/>
		<path class="st1" d="M130.2,412.8L22.3,350.5c-9.1-5.3-16.5-19.4-16.5-31.6V17.9c0-12.2,7.4-17.8,16.5-12.5l107.9,62.3
			c9.1,5.3,16.5,19.4,16.5,31.6v300.9C146.8,412.5,139.3,418,130.2,412.8z"/>
		<path class="st2" d="M145.6,100.1V401c0,12.2-7.4,17.8-16.5,12.5l-42.3-24.4l-13.1-7.6l-52.4-30.3C12,346,4.6,331.8,4.6,319.6
			V18.7C4.6,6.5,12,0.9,21.2,6.2l107.9,62.3C138.2,73.8,145.6,87.9,145.6,100.1z"/>
		<path class="st3" d="M137.8,97v293.1c0,7.4-5.2,10.4-11.6,6.7l-33.7-19.4l-3-1.7l-1-0.6l-7.3-4.2l-21.1-12.2l0,0l-8.8-5l-3.5-2
			L24,337.8c-6.4-3.7-11.6-12.7-11.6-20.1V24.6c0-7.4,5.2-10.4,11.6-6.7l42.1,24.3v0.1c0,5.8,4,12.7,9,15.6s9,0.5,9-5.2
			c0,0,0-0.1,0-0.1L126.3,77C132.7,80.7,137.8,89.7,137.8,97z"/>
		<ellipse transform="matrix(0.866 -0.5 0.5 0.866 -15.3202 44.3705)" class="st4" cx="75.1" cy="50.8" rx="2.8" ry="4.8"/>
		<path class="st5" d="M75.1,52.4c-0.9-0.6-1.4-1.5-1.4-2.5c0-0.9,0.6-1.3,1.4-0.8c0.9,0.5,1.4,1.5,1.5,2.5
			C76.6,52.5,75.9,52.9,75.1,52.4z"/>
		<path class="st6" d="M150,139.7L150,139.7c-0.9,0.5-1.6,0-1.6-1.2v-12.8c0-1.2,0.6-2.3,1.6-3l0,0c0.9-0.5,1.6,0,1.6,1.2v12.8
			C151.5,137.9,151,139,150,139.7z"/>
		<path class="st6" d="M150,160.7L150,160.7c-0.9,0.5-1.6,0-1.6-1.2v-12.8c0-1.2,0.6-2.3,1.6-3.1l0,0c0.9-0.5,1.6,0,1.6,1.2v12.8
			C151.6,158.9,151,160,150,160.7z"/>
		<path class="st7" d="M117.6,371.8l-84.9-49c-4.4-2.5-8-9.4-8-15.2V150c0-5.9,3.6-8.6,8-6l84.9,49c4.4,2.6,8,9.4,8,15.3v157.6
			C125.6,371.6,122,374.3,117.6,371.8z"/>
		<ellipse transform="matrix(0.866 -0.5 0.5 0.866 -89.1423 52.901)" class="st8" cx="54.1" cy="192.8" rx="13" ry="22.6"/>
		<polygon class="st8" points="112.6,224.4 79.8,205.5 79.8,197.8 112.6,216.7 		"/>
		<polygon class="st8" points="105,233.9 79.8,219.3 79.8,211.6 105,226.2 		"/>
		<polygon class="st8" points="112.6,268.7 38.2,225.8 38.2,218.1 112.6,261.1 		"/>
		<polygon class="st8" points="95.4,272.6 38.2,239.6 38.2,231.9 95.4,265 		"/>
		<polygon class="st8" points="112.3,296.2 37.9,253.3 37.9,245.6 112.3,288.5 		"/>
		<polygon class="st8" points="95.2,300.1 37.9,267.1 37.9,259.4 95.2,292.5 		"/>
		<polygon class="st8" points="112.3,323.9 37.9,280.9 37.9,273.2 112.3,316.2 		"/>
		<polygon class="st8" points="111.7,351.1 37.3,308.2 37.3,300.5 111.7,343.4 		"/>
		<polygon class="st8" points="95.2,327.8 37.9,294.7 37.9,287.1 95.2,320.1 		"/>
		<path class="st8" d="M48.2,135.4L48.2,135.4c-0.7-0.5-1.2-1.2-1.3-2.1l-5.3-62.5l-4.2,26.8c-0.1,0.7-0.6,0.9-1.3,0.5l-10.2-5.9
			c-0.8-0.5-1.3-1.3-1.3-2.3c0-0.8,0.6-1.2,1.3-0.8l9.1,5.3l5.6-35.8c0.1-0.7,0.7-0.9,1.3-0.5c0.7,0.5,1.2,1.2,1.3,2.1l5.2,61.6
			l5-36.9c0.1-0.7,0.6-0.9,1.3-0.6c0.7,0.4,1.2,1.2,1.3,2l6,35.9l5.8-47c0.1-0.7,0.6-0.9,1.3-0.6l0,0c0.7,0.4,1.2,1.2,1.3,2
			l6.9,60.9l5.8-30c0.1-0.6,0.6-0.8,1.3-0.5l0,0c0.7,0.4,1.1,1.1,1.3,1.9l5.9,30.2l5.3-45.5c0.1-0.7,0.6-0.9,1.3-0.6
			c0.7,0.4,1.2,1.2,1.3,2l6.5,48l4.5-21c0.1-0.6,0.6-0.8,1.2-0.5c0.7,0.4,1.1,1,1.3,1.8l4.4,17.9l9.4,5.3l0,0
			c0.8,0.5,1.3,1.3,1.3,2.3c0,0.8-0.6,1.2-1.3,0.8l-10.3-5.8l0,0c-0.6-0.4-1.1-1-1.3-1.8l-3.2-13l-4.9,23c-0.1,0.6-0.7,0.8-1.3,0.4
			c-0.7-0.5-1.1-1.2-1.3-2l-6.1-45.3l-5,43.4c-0.1,0.7-0.6,0.9-1.2,0.6c-0.7-0.4-1.2-1.1-1.4-1.9l-6.1-31.6l-6.1,31.9
			c-0.1,0.6-0.7,0.8-1.3,0.4c-0.7-0.5-1.1-1.2-1.3-2l-6.7-58.7l-5.6,44.8c-0.1,0.7-0.6,0.9-1.3,0.6c-0.7-0.5-1.2-1.2-1.3-2l-6-36.3
			l-5.5,40.3C49.4,135.5,48.8,135.7,48.2,135.4z"/>
		<g id="Girl_14">
			<path id="_Контур_" class="st9" d="M62.7,101.4c2.1-3.4,18.1-5.6,23.3,8c2,5.1,1.7,18.3,3.4,26.5s5.6,12.9,7,19.6
				s-0.9,17.9-17,19.9s-28.5-3.7-32.3-8.8s-3.9-16.1,0.1-21.9s7-10.6,6.9-18.3L62.7,101.4z"/>
			<path id="_Контур_2" class="st9" d="M73.3,99.1c0,0-12-3.5-19.3,3c-6.7,5.9-6.1,14-5.1,17.8s2.9,9,5.9,9.3
				S73.3,99.1,73.3,99.1z"/>
			<path id="_Контур_3" class="st10" d="M77.9,131.9c0,0-0.8,13.4-0.5,14.4s5.3,1.9,6.7,3.1s-7.3,14.8-11.7,16.8
				s-18.1-3.1-19.1-10c-0.9-6.3,3.9-11.1,5.8-12.8c1.3-0.1,2.5-0.2,3.8-0.1l0.4-6.5C69.2,134.9,77.9,131.9,77.9,131.9z"/>
			<path class="st10" d="M45.4,157.2c-0.1-0.4-2,0.7-2,0.7s-1,34.4-2.6,37.5l0,0c-4.3,7.3-15.7,19.7-15.9,21.1
				c-0.8,4.2,1.6,0.4,5.5,0c2.2-0.3,15.1-13.3,18-16.3l0.2,0.1c0-0.1,0-0.2,0-0.3l0.4-0.4c0.1-0.9,0.1-1.9,0.1-2.8
				C54.4,159.4,47.8,156.9,45.4,157.2z"/>
			<path class="st3" d="M42.5,162.5l-0.7,16.6l-1.1,13.1c0,0,0.2,1.8-1.7,4.8s-12.2,15.8-12.2,15.8l4.6,3.9l10.6-8.7l7-46.8
				l-3.7-4.6L42.5,162.5z"/>
			<path id="_Контур_4" class="st11" d="M79.7,147.6c3.8,0.6,8.1,2.6,8.7,4.6c0.7,2.4,2.2,13.8-1.1,22.4s-5.5,14.1-7.3,17.8
				c0,0-16.3,7-29.4-1.2c0,0-0.9-9.2-1-14.2c-12.1-10.6-1.8-23.6,8.5-33.8c1.2-0.1,2.5-0.1,3.7-0.1c0,0-9.2,10.8-2.8,17
				C72.6,156.2,75.3,150,79.7,147.6z"/>
			<path id="_Контур_5" class="st10" d="M52.8,115.3L52.8,115.3c1.4-8.6,7.6-15.1,16.5-14.6c9.4,0.5,16.6,8.6,16.1,18
				c-0.3,5.3-3.1,10.2-7.5,13.2c-0.3,1.3-0.8,2.6-1.4,3.8c-3.1,3.7-11.5,6-14.3,6c-2.4,0-4.4-2.2-6.7-5.9
				C50.9,128.1,52.1,119.5,52.8,115.3z"/>
			<path class="st9" d="M72,100.8c6.2,1.2,11.4,3,13,9.1c1.2,4.2,2.7,12.3,1.2,15.6l-0.9,2.4l-7.5,3.9c0,0-3.5-2.9-2.4-11.5
				c0-1.2-0.4-2.3-1.1-3.3c-0.5-0.8-0.8-1.7-1-2.6c-0.8-2.4-2.7-4-4.9-5.3c-5.6-3.2-13.8-0.4-15,0.7C57.3,102.1,64.8,99.4,72,100.8z
				"/>
			<path class="st10" d="M94.1,237.2c-1,10.9-7.1,57.1-7.1,57.1c2.4,7.8,3.6,15.9,3.7,24C90.8,325,89,336.4,87,347l-3.5,25.1
				l-8.3-4.8l0.3-18.8c-0.4-6.3-1-15.5-1.5-21.5c-0.6-9.6-2.4-25-2.9-28.8s-1.7-10.5-2.3-18s-3.4-45.6-3.4-45.6l-0.4,7.1
				c0,0-0.4,11.6-2,25.8s-2.3,20.6-2.3,20.6s2.9,5.3,3.3,9.2c0.3,3.1,3.8,27.5,1.7,39.9l-3.1,22.6l-10-5.7l-1.3-16.1
				c-1.7-12.1-5.3-37.8-5.9-41.1c-0.7-4.4-1.3-6.5-2.2-20.4s-0.5-43.8,0.9-54.6s5.4-26.7,5.4-26.7c3.8,1.8,7.9,2.8,12.1,3
				c7,0.4,18.3-1.8,18.3-1.8c2,3.4,4.1,6.8,6.4,9.9C89.5,211,95.6,220.5,94.1,237.2z"/>
			<path class="st12" d="M80,192.4l9.4,18.8c0,0,14.3,20.9-0.5,74.7l2.8,16.6c0,0-28,18-46.8,0c0,0-6.5-49.7-3-72.6
				c1.9-13.2,4.8-26.2,8.7-38.9c0,0,4.6,5.1,28.2,1.7"/>
			<path class="st3" d="M58.1,143.3c0,0-13.9,2.3-15.5,19.2l3.2-3.2C45.7,159.3,53.5,147.6,58.1,143.3z"/>
			<path class="st3" d="M61.8,143.3c-3.6,6.9-13,18.2-10.3,30.4c3.5,16.3-3.2,113.9-3.2,113.9s-8-5.1-8-9.1s3-109.4,3-114.4
				s8.8-13.9,14.7-20.8c1.6-0.6,3.2-0.8,4.9-0.8c0,0.4,0,0.4,0,0.8C62.5,143.3,62.3,143.3,61.8,143.3z"/>
			<polygon class="st11" points="0,232.7 32,214.1 55,227.4 23,246 			"/>
			<path class="st10" d="M27.9,215.5c-2,0.5-4,0.6-5.7,1.9c-0.6,0.6-1.3,1-2,1.5c-0.3,0.2-0.6,0.4-1,0.5c-0.5,0.2-0.9,0.5-1.3,0.9
				c-0.4,0.5-0.6,1.1-0.6,1.8c-0.2,0.8-0.2,1.5-0.1,2.3c0.3,1.1,1.5,1.1,2.1,0.3c0.3-0.4,0.5-0.9,0.5-1.4c0-1,0.5-1.9,1.4-2.4
				l7.6-4.8C28.7,215.6,28.3,215.4,27.9,215.5z"/>
			<path class="st3" d="M90,173.1c0,0-0.3,28.7,0.8,38s14.3,36.5,2.6,73.4c-1.7,2-3.3,6-18,7.8c-8.8,0-12-1.3-12-1.3
				S66.9,229,62,174.6c0-15,12.9-13.3,15.3-29.9c11.4,5.3,11.4,7,11.4,7L90,173.1z"/>
			<path class="st13" d="M84.3,151.4c-6.3,0.7-7.1,8.6-7.1,8.6l-0.3,12.2c0,0,0.7,15.5,2.5,20.3l-27.2,18.7l5.9,6.9
				c0,0,28.7-13.3,31-15.4s0-26.4,0.4-33.5C91,156,90.6,150.7,84.3,151.4z"/>
			<path class="st10" d="M88.8,158.1c-1.1-4.4-4.5-2.9-7.4-5.5c-6.8,9.6-2.3,35.7-1.4,38.5l-26.1,16.7l0,0c-0.4,0.3-1.3,0.8-1.8,1.1
				c-2.4,1.4-6.9,3.9-9.7,4.2c-2.6,0.3-4,4-6.8,4.3c-0.6,0-1.1,0.5-1,1.1c0,0.3,0.1,0.5,0.3,0.7c1.1,1.1,4.1,0.2,6.1-2.2
				c0,0.1,0,0.1,0,0.2c0,1,0.7,1.8,1.6,2c0,0.2,0,0.3,0.1,0.5c0.3,0.6,0.9,1,1.6,1.1l0,0c0.3,0.9,1.2,1.5,2.1,1.4
				c0.6,0,1.2-0.3,1.6-0.7c2.2-0.9,4.2-2.3,5.7-4.1c1.3-1.4,2.8-2.7,4.2-3.9c7.1-3.1,28.4-12.1,29.3-13.4
				C88.8,198.1,90.3,164.3,88.8,158.1z"/>
			<path class="st3" d="M83.2,149.3c-6.3,0.7-7.1,8.6-7.1,8.6l-0.3,12.2c0,0,0.7,15.5,2.5,20.3l-27.2,18.7L57,216
				c0,0,28.7-13.3,31-15.4s2.8-23.7,3.1-30.7C92.7,156.6,89.5,148.6,83.2,149.3z"/>
		</g>
	</g>
</g>
</svg>
