<?xml version="1.0" encoding="utf-8"?>
<!-- Generator: Adobe Illustrator 16.0.0, SVG Export Plug-In . SVG Version: 6.00 Build 0)  -->
<!DOCTYPE svg PUBLIC "-//W3C//DTD SVG 1.1//EN" "http://www.w3.org/Graphics/SVG/1.1/DTD/svg11.dtd">
<svg version="1.1" id="Layer_1" xmlns="http://www.w3.org/2000/svg" xmlns:xlink="http://www.w3.org/1999/xlink" x="0px" y="0px"
	 width="512px" height="512px" viewBox="0 0 512 512" enable-background="new 0 0 512 512" xml:space="preserve">
<path fill="#FFD500" d="M511.965,130.281c-0.008-0.109-0.023-0.223-0.031-0.332c-0.023-0.227-0.043-0.449-0.074-0.672
	c-0.016-0.133-0.043-0.266-0.063-0.395c-0.031-0.199-0.066-0.398-0.105-0.594c-0.027-0.137-0.063-0.277-0.094-0.418
	c-0.043-0.184-0.09-0.367-0.137-0.551c-0.039-0.141-0.082-0.281-0.125-0.422c-0.055-0.176-0.113-0.352-0.172-0.527
	c-0.051-0.141-0.102-0.277-0.152-0.414c-0.066-0.172-0.137-0.344-0.207-0.516c-0.059-0.133-0.113-0.266-0.176-0.398
	c-0.078-0.172-0.16-0.34-0.246-0.508c-0.063-0.125-0.129-0.25-0.195-0.375c-0.09-0.172-0.191-0.336-0.289-0.504
	c-0.066-0.117-0.137-0.234-0.207-0.348c-0.109-0.176-0.223-0.344-0.34-0.512c-0.07-0.102-0.141-0.207-0.211-0.309
	c-0.137-0.184-0.277-0.363-0.422-0.543c-0.063-0.078-0.121-0.16-0.188-0.238c-0.422-0.508-0.879-0.988-1.371-1.441
	c-0.07-0.066-0.148-0.129-0.223-0.195c-0.176-0.152-0.352-0.309-0.535-0.457c-0.098-0.078-0.199-0.148-0.297-0.227
	c-0.168-0.129-0.336-0.254-0.512-0.379c-0.105-0.074-0.215-0.145-0.324-0.215c-0.125-0.082-0.246-0.168-0.371-0.246
	c-0.051-0.031-0.109-0.063-0.16-0.094c-0.113-0.066-0.227-0.129-0.34-0.191c-0.184-0.109-0.371-0.211-0.563-0.309
	c-0.051-0.023-0.098-0.055-0.148-0.078L280.516,6.75c-15.352-7.645-33.68-7.645-49.031,0L8.313,117.871
	c-0.051,0.027-0.098,0.055-0.148,0.082c-0.188,0.098-0.375,0.199-0.563,0.305c-0.113,0.063-0.227,0.129-0.336,0.195
	c-0.055,0.031-0.109,0.059-0.164,0.094c-0.125,0.074-0.246,0.164-0.367,0.242c-0.109,0.074-0.219,0.145-0.328,0.219
	c-0.172,0.121-0.344,0.25-0.512,0.379c-0.098,0.074-0.199,0.148-0.297,0.227c-0.184,0.148-0.359,0.301-0.535,0.457
	c-0.074,0.066-0.148,0.125-0.223,0.191c-0.488,0.453-0.949,0.934-1.371,1.445c-0.063,0.074-0.121,0.156-0.188,0.234
	c-0.141,0.18-0.285,0.359-0.418,0.547c-0.074,0.102-0.141,0.203-0.211,0.309c-0.117,0.168-0.23,0.336-0.34,0.508
	c-0.074,0.117-0.141,0.234-0.211,0.348c-0.098,0.168-0.195,0.336-0.289,0.504c-0.066,0.125-0.129,0.25-0.195,0.379
	c-0.082,0.168-0.164,0.336-0.246,0.508c-0.059,0.133-0.117,0.262-0.172,0.395c-0.074,0.172-0.145,0.344-0.211,0.516
	c-0.051,0.141-0.102,0.277-0.148,0.414c-0.063,0.176-0.117,0.352-0.172,0.531c-0.043,0.137-0.086,0.277-0.125,0.422
	c-0.051,0.18-0.094,0.363-0.141,0.547c-0.031,0.141-0.066,0.281-0.094,0.422c-0.039,0.195-0.074,0.395-0.105,0.59
	c-0.023,0.133-0.047,0.266-0.063,0.398c-0.031,0.219-0.051,0.445-0.074,0.668c-0.008,0.113-0.023,0.223-0.031,0.336
	C0.012,130.617,0,130.957,0,131.301v238.984c0,13.367,7.434,25.371,19.398,31.328l212.086,105.605
	c7.574,3.77,16.055,5.766,24.516,5.766s16.938-1.996,24.516-5.766l212.082-105.605C504.566,395.656,512,383.652,512,370.285V131.301
	C512,130.957,511.988,130.617,511.965,130.281z"/>
<path fill="#DC0069" d="M511.965,130.281c-0.008-0.109-0.023-0.223-0.031-0.332c-0.023-0.227-0.043-0.449-0.074-0.672
	c-0.016-0.133-0.043-0.266-0.063-0.395c-0.031-0.199-0.066-0.398-0.105-0.594c-0.027-0.137-0.063-0.277-0.094-0.418
	c-0.043-0.184-0.09-0.367-0.137-0.551c-0.039-0.141-0.082-0.281-0.125-0.422c-0.055-0.176-0.113-0.352-0.172-0.527
	c-0.051-0.141-0.102-0.277-0.152-0.414c-0.066-0.172-0.137-0.344-0.207-0.516c-0.059-0.133-0.113-0.266-0.176-0.398
	c-0.078-0.172-0.16-0.34-0.246-0.508c-0.063-0.125-0.129-0.25-0.195-0.375c-0.09-0.172-0.191-0.336-0.289-0.504
	c-0.066-0.117-0.137-0.234-0.207-0.348c-0.109-0.176-0.223-0.344-0.34-0.512c-0.07-0.102-0.141-0.207-0.211-0.309
	c-0.137-0.184-0.277-0.363-0.422-0.543c-0.063-0.078-0.121-0.16-0.188-0.238c-0.422-0.508-0.879-0.988-1.371-1.441
	c-0.07-0.066-0.148-0.129-0.223-0.195c-0.176-0.152-0.352-0.309-0.535-0.457c-0.098-0.078-0.199-0.148-0.297-0.227
	c-0.168-0.129-0.336-0.254-0.512-0.379c-0.105-0.074-0.215-0.145-0.324-0.215c-0.125-0.082-0.246-0.168-0.371-0.246
	c-0.051-0.031-0.109-0.063-0.16-0.094c-0.113-0.066-0.227-0.129-0.34-0.191c-0.184-0.109-0.371-0.211-0.563-0.309
	c-0.051-0.023-0.098-0.055-0.148-0.078L280.516,6.75C272.84,2.93,264.422,1.016,256,1.016v511.969
	c8.461,0,16.938-1.996,24.516-5.766l212.082-105.605C504.566,395.656,512,383.652,512,370.285V131.301
	C512,130.957,511.988,130.617,511.965,130.281z"/>
<path fill="#6730E3" d="M256,261.566c-8.422,0-16.84-1.91-24.516-5.734L8.313,144.711C3.219,142.176,0,136.973,0,131.281
	c0-5.688,3.219-10.891,8.313-13.426L231.484,6.734c15.352-7.645,33.68-7.645,49.031,0l223.168,111.121
	c5.098,2.535,8.316,7.738,8.316,13.426c0,5.691-3.223,10.895-8.316,13.43L280.516,255.832
	C272.84,259.652,264.418,261.566,256,261.566z"/>
<path fill="#5327CC" d="M503.688,117.855L280.516,6.734C272.84,2.91,264.422,1,256,1v260.566c8.418,0,16.84-1.914,24.516-5.734
	l223.172-111.121c5.094-2.535,8.313-7.738,8.313-13.43C512,125.594,508.781,120.391,503.688,117.855z"/>
</svg>
