<?xml version="1.0" encoding="utf-8"?>
<!-- Generator: Adobe Illustrator 16.0.0, SVG Export Plug-In . SVG Version: 6.00 Build 0)  -->
<!DOCTYPE svg PUBLIC "-//W3C//DTD SVG 1.1//EN" "http://www.w3.org/Graphics/SVG/1.1/DTD/svg11.dtd">
<svg version="1.1" id="Layer_1" xmlns="http://www.w3.org/2000/svg" xmlns:xlink="http://www.w3.org/1999/xlink" x="0px" y="0px"
	 width="612px" height="105.685px" viewBox="0 0 612 105.685" enable-background="new 0 0 612 105.685" xml:space="preserve">
<path opacity="0.5" fill="#FFFFFF" enable-background="new    " d="M611.353,67.025c-3.623,3.595-37.923,10.937-40.976,11.434
	c-43.876,6.921-89.2,3.174-132.731-4.359C353.52,59.455,278.438,16.819,191.259,9.554C125.142,4.048,54.786-6.544-0.037,37.124
	v68.561h611.389C611.353,105.723,611.353,67.025,611.353,67.025z"/>
<path fill="#FFFFFF" d="M611.542,82.13c-1.906,1.529-16.823,5.506-18.121,5.813c-17.625,4.474-35.861,6.576-54.024,7.303
	c-41.28,1.606-83.17-4.779-123.497-14.645c-40.479-9.904-78.669-26.996-117.509-41.756C225.061,10.969,134.488-7.959,57.23,14.181
	c-17.4,4.971-34.072,12.466-48.989,22.714c-1.182,0.803-8.316,4.856-8.316,6.156v62.634h611.428
	C611.353,105.723,611.542,82.168,611.542,82.13z"/>
</svg>
