<?xml version="1.0" encoding="utf-8"?>
<!-- Generator: Adobe Illustrator 21.0.0, SVG Export Plug-In . SVG Version: 6.00 Build 0)  -->
<svg version="1.1" id="Layer_1" xmlns="http://www.w3.org/2000/svg" xmlns:xlink="http://www.w3.org/1999/xlink" x="0px" y="0px"
	 viewBox="0 0 569 60.2" style="enable-background:new 0 0 569 60.2;" xml:space="preserve">
<style type="text/css">
	.st0{fill:#FFFFFF;}
</style>
<path class="st0" d="M527.8,16.3c-22.5,7.7-45.5,13.7-68.7,18.9c-27.9,6.2-56.2,10.5-84.9,11.5c-20.4,0.7-40.7-0.2-61-3
	c-15.2-2.1-30.3-5.2-45.1-9.1c-19.7-5.1-39.6-9.2-60.2-9.9c-10.9-0.3-21.7,0.6-32.3,2.5c-11.3,2.1-22.1,5.6-32.9,9.3
	c-16.1,5.7-32.2,11.4-48.3,16.9c-8.3,2.8-16.8,4.9-25.6,5.9c-2.3,0.3-4.7,0.6-7,0.7c-2.6-0.3-5.3-0.6-7.9-0.9
	c-16-2.2-30.5-7.9-43.5-16.8c-3.6-2.2-7-5-10.4-7.6c0,8.5,0,17,0,25.5c20.6,0,41.1,0,61.7,0c0,0,0,0,0.1,0c169.1,0,338.1,0,507.2,0
	c0-20.1,0-40.1,0-60.2C555.5,5.9,541.8,11.5,527.8,16.3z"/>
</svg>
