<?xml version="1.0" encoding="utf-8"?>
<!-- Generator: Adobe Illustrator 21.0.0, SVG Export Plug-In . SVG Version: 6.00 Build 0)  -->
<svg version="1.1" id="Layer_1" xmlns="http://www.w3.org/2000/svg" xmlns:xlink="http://www.w3.org/1999/xlink" x="0px" y="0px"
	 viewBox="0 0 569.2 95.8" style="enable-background:new 0 0 569.2 95.8;" xml:space="preserve">
<style type="text/css">
	.st0{fill:#FFFFFF;}
</style>
<g>
	<path class="st0" d="M0,95.8C7.5,90.4,16.1,86,26.3,83c13.5-4,27.3-4.4,41.5-1.5c11,2.3,21.6,5.3,32.2,8.1c7.7,2.1,15.5,4,23.7,4.9
		c12.2,1.5,23.8,0.5,35.2-2.7c9.7-2.7,18.5-6.4,27.3-10.2c10.4-4.4,20.6-9,31.1-13.3c8.1-3.3,16.8-5.8,26.1-7.2
		c13.4-2,26.4-1,39.2,2.2c7.1,1.8,14.1,3.8,21.4,5.3c11.7,2.5,23.9,3.6,36.3,3.4c22.1-0.4,41.9-4.7,58.8-14.2
		c4.1-2.3,7.8-4.9,11.8-7.4c4.8-2.9,10.1-5.3,16-7.2c12.5-3.8,24.3-2.9,35.4,2.3c1.7,0.8,3.3,1.8,5,2.5c4.7,2.3,10.2,3.4,15.9,3.8
		c15.8,1.1,30.4-1.3,43.5-7.1c8-3.5,13.7-8.3,16.9-14.3c4-7.5,8.6-14.9,14.9-21.7c3-3.3,6.5-6.3,10.7-8.9c0,32,0,64,0,96.1
		c-0.5,0-1,0-1.5,0c-188.9,0-377.7,0-566.6,0C0.8,96,0.4,95.9,0,95.8z"/>
</g>
</svg>
