<?xml version="1.0" encoding="utf-8"?>
<!-- Generator: Adobe Illustrator 21.0.0, SVG Export Plug-In . SVG Version: 6.00 Build 0)  -->
<svg version="1.1" id="Ñëîé_1" xmlns="http://www.w3.org/2000/svg" xmlns:xlink="http://www.w3.org/1999/xlink" x="0px" y="0px"
	 viewBox="0 0 1599.9 236.9" style="enable-background:new 0 0 1599.9 236.9;" xml:space="preserve">
<style type="text/css">
	.st0{display:none;}
	.st1{display:inline;}
	.st2{enable-background:new    ;}
	.st3{fill:url(#SVGID_1_);}
	.st4{fill:url(#SVGID_2_);}
	.st5{fill:#FFFFFF;}
	.st6{fill:url(#SVGID_3_);}
	.st7{fill:url(#SVGID_4_);}
	.st8{fill:url(#SVGID_5_);}
	.st9{fill:url(#SVGID_6_);}
	.st10{fill:url(#SVGID_7_);}
	.st11{fill:url(#SVGID_8_);}
	.st12{fill:url(#SVGID_9_);}
	.st13{fill:url(#SVGID_10_);}
	.st14{fill:url(#SVGID_11_);}
	.st15{fill:url(#SVGID_12_);}
	.st16{fill:url(#SVGID_13_);}
	.st17{fill:url(#SVGID_14_);}
	.st18{fill:url(#SVGID_15_);}
	.st19{fill:url(#SVGID_16_);}
	.st20{fill:url(#SVGID_17_);}
	.st21{fill:url(#SVGID_18_);}
	.st22{fill:url(#SVGID_19_);}
	.st23{fill:url(#SVGID_20_);}
	.st24{fill:url(#SVGID_21_);}
	.st25{fill:url(#SVGID_22_);}
	.st26{fill:url(#SVGID_23_);}
	.st27{fill:url(#SVGID_24_);}
	.st28{fill:url(#SVGID_25_);}
	.st29{fill:url(#SVGID_26_);}
	.st30{fill:url(#SVGID_27_);}
	.st31{fill:url(#SVGID_28_);}
	.st32{fill:url(#SVGID_29_);}
</style>
<g>
	<g>
		<g class="st0">
			<g class="st1">
				<g>
					<g class="st2">
						
							<linearGradient id="SVGID_1_" gradientUnits="userSpaceOnUse" x1="1331.5837" y1="-679.7097" x2="1339.67" y2="-679.7097" gradientTransform="matrix(1 0 0 1 0 -246.11)">
							<stop  offset="0" style="stop-color:#58258C"/>
							<stop  offset="1" style="stop-color:#FFFFFF"/>
						</linearGradient>
						<path class="st3" d="M1338-929.2c-0.5-0.3-0.9-0.3-1.2-0.1l-5.2,3c0.3-0.2,0.7-0.2,1.2,0.1c0.9,0.5,1.7,1.8,1.7,2.9
							c0,0.5-0.2,0.9-0.5,1.1l5.2-3c0.3-0.2,0.5-0.6,0.5-1.1C1339.7-927.3,1338.9-928.6,1338-929.2z"/>
						<g>
							
								<linearGradient id="SVGID_2_" gradientUnits="userSpaceOnUse" x1="1331.0983" y1="-678.0619" x2="1334.4731" y2="-678.0619" gradientTransform="matrix(1 0 0 1 0 -246.11)">
								<stop  offset="0" style="stop-color:#58258C"/>
								<stop  offset="1" style="stop-color:#FFFFFF"/>
							</linearGradient>
							<path class="st4" d="M1332.8-926.1c0.9,0.5,1.7,1.8,1.7,2.9c0,1.1-0.8,1.5-1.7,1c-0.9-0.5-1.7-1.8-1.7-2.9
								C1331.1-926.2,1331.9-926.7,1332.8-926.1z"/>
						</g>
					</g>
				</g>
				<g>
					<polygon class="st5" points="1326.8,-941.3 1342.4,-930.2 1355.9,-923.8 1342.3,-916 1324.6,-940 					"/>
				</g>
				<g>
					
						<linearGradient id="SVGID_3_" gradientUnits="userSpaceOnUse" x1="1362.4836" y1="-692.14" x2="1375.8212" y2="-692.14" gradientTransform="matrix(1 0 0 1 0 -246.11)">
						<stop  offset="0" style="stop-color:#FFFFFF"/>
						<stop  offset="1" style="stop-color:#58258C"/>
					</linearGradient>
					<polygon class="st6" points="1375.8,-937.9 1370.1,-932.7 1362.5,-942.7 1364.3,-943.8 					"/>
				</g>
				
					<linearGradient id="SVGID_4_" gradientUnits="userSpaceOnUse" x1="1355.2832" y1="-667.4957" x2="1348.3107" y2="-678.1206" gradientTransform="matrix(1 0 0 1 0 -246.11)">
					<stop  offset="0" style="stop-color:#58258C"/>
					<stop  offset="1" style="stop-color:#FFFFFF"/>
				</linearGradient>
				<path class="st7" d="M1375.8-937.9l-9.5,4.1c-0.7,0.3-1.5,0.7-2.2,1.1l-35.5,20.5c-0.4,0.2-0.7,0.5-0.9,0.9
					c-0.1,0.1-0.1,0.2-0.2,0.3s-0.1,0.3-0.2,0.4c0,0.1-0.1,0.2-0.1,0.2c-0.1,0.1-0.1,0.2-0.2,0.3c0,0.1-0.1,0.2-0.1,0.2
					c0,0.1-0.1,0.1-0.1,0.2c-0.2,0.4-0.5,0.8-0.7,1.2c0,0,0,0.1-0.1,0.1c-0.1,0.1-0.1,0.2-0.2,0.4c0,0.1-0.1,0.1-0.1,0.2
					c-0.1,0.1-0.1,0.3-0.2,0.4l0,0l0,0c0,0-3.1,4-1.2,5.4c2,1.5,7.4-0.1,8.6-0.5c0.1,0,0.1,0,0.2-0.1c0.1,0,0.1,0,0.1,0l0,0
					c0.1-0.1,0.2-0.1,0.4-0.2l36.3-22.6c1.2-0.7,2.3-1.6,3.4-2.6l5.9-5.5v-2.7L1375.8-937.9z"/>
				
					<linearGradient id="SVGID_5_" gradientUnits="userSpaceOnUse" x1="1326.9393" y1="-665.4559" x2="1332.7732" y2="-659.7233" gradientTransform="matrix(1 0 0 1 0 -246.11)">
					<stop  offset="0" style="stop-color:#58258C"/>
					<stop  offset="1" style="stop-color:#151B4E"/>
				</linearGradient>
				<path class="st8" d="M1334.1-907.3L1334.1-907.3c0.2-0.6-0.2-1.2-0.9-1.3c-3.6-0.3-5-1.5-5.6-2.4l0,0c-0.1,0.1-0.1,0.3-0.2,0.4
					c0,0.1-0.1,0.2-0.1,0.2c-0.1,0.1-0.1,0.2-0.2,0.3c0,0.1-0.1,0.2-0.1,0.2c0,0.1-0.1,0.1-0.1,0.2c-0.1,0.2-0.2,0.4-0.3,0.6
					l0.7,1.3c0.3,0.5,0.9,0.9,1.5,0.9l4.4,0.1C1333.5-906.6,1333.9-906.9,1334.1-907.3z"/>
				<g>
					<g class="st2">
						
							<linearGradient id="SVGID_6_" gradientUnits="userSpaceOnUse" x1="1359.4282" y1="-662.6097" x2="1367.5145" y2="-662.6097" gradientTransform="matrix(1 0 0 1 0 -246.11)">
							<stop  offset="0" style="stop-color:#58258C"/>
							<stop  offset="1" style="stop-color:#FFFFFF"/>
						</linearGradient>
						<path class="st9" d="M1365.8-912.1c-0.5-0.3-0.9-0.3-1.2-0.1l-5.2,3c0.3-0.2,0.7-0.2,1.2,0.1c0.9,0.5,1.7,1.8,1.7,2.9
							c0,0.5-0.2,0.9-0.5,1.1l5.2-3c0.3-0.2,0.5-0.6,0.5-1.1C1367.5-910.3,1366.8-911.6,1365.8-912.1z"/>
						<g>
							
								<linearGradient id="SVGID_7_" gradientUnits="userSpaceOnUse" x1="1358.9365" y1="-661.04" x2="1362.3113" y2="-661.04" gradientTransform="matrix(1 0 0 1 0 -246.11)">
								<stop  offset="0" style="stop-color:#58258C"/>
								<stop  offset="1" style="stop-color:#FFFFFF"/>
							</linearGradient>
							<path class="st10" d="M1360.6-909.1c0.9,0.5,1.7,1.8,1.7,2.9c0,1.1-0.8,1.5-1.7,1c-0.9-0.5-1.7-1.8-1.7-2.9
								C1359-909.2,1359.7-909.6,1360.6-909.1z"/>
						</g>
					</g>
				</g>
				<g>
					
						<linearGradient id="SVGID_8_" gradientUnits="userSpaceOnUse" x1="1348.9918" y1="-672.7456" x2="1394.1718" y2="-654.8221" gradientTransform="matrix(1 0 0 1 0 -246.11)">
						<stop  offset="0" style="stop-color:#58258C"/>
						<stop  offset="1" style="stop-color:#FFFFFF"/>
					</linearGradient>
					<path class="st11" d="M1390.2-904.2l-2.2,1.3l-38.3-9.4c-1.2-0.3-1.5-1.9-0.4-2.6l9.8-5.7c0.5-0.3,1.1-0.2,1.5,0.1l10.4,7.3
						L1390.2-904.2z"/>
				</g>
				<g>
					<g class="st2">
						<g>
							
								<linearGradient id="SVGID_9_" gradientUnits="userSpaceOnUse" x1="1376.4335" y1="-699.04" x2="1379.7938" y2="-699.04" gradientTransform="matrix(1 0 0 1 0 -246.11)">
								<stop  offset="0" style="stop-color:#58258C"/>
								<stop  offset="1" style="stop-color:#FFFFFF"/>
							</linearGradient>
							<polygon class="st12" points="1377,-944.2 1376.4,-944.5 1379.3,-946.1 1379.8,-945.8 							"/>
						</g>
						<g>
							
								<linearGradient id="SVGID_10_" gradientUnits="userSpaceOnUse" x1="1370.0836" y1="-692.34" x2="1376.9546" y2="-692.34" gradientTransform="matrix(1 0 0 1 0 -246.11)">
								<stop  offset="0" style="stop-color:#58258C"/>
								<stop  offset="1" style="stop-color:#FFFFFF"/>
							</linearGradient>
							<polygon class="st13" points="1370.6,-932.4 1370.1,-932.7 1376.4,-944.5 1377,-944.2 							"/>
						</g>
						<g>
							<polygon class="st5" points="1377,-944.2 1379.8,-945.8 1377.9,-936.7 1374,-934.4 1370.6,-932.4 							"/>
						</g>
					</g>
				</g>
				<g>
					
						<linearGradient id="SVGID_11_" gradientUnits="userSpaceOnUse" x1="1372.1836" y1="-685.79" x2="1391.1049" y2="-685.79" gradientTransform="matrix(1 0 0 1 0 -246.11)">
						<stop  offset="0" style="stop-color:#58258C"/>
						<stop  offset="1" style="stop-color:#FFFFFF"/>
					</linearGradient>
					<polygon class="st14" points="1379,-936 1391.1,-928.8 1389.3,-927.8 1372.2,-932 					"/>
				</g>
				<g>
					<g>
						<g>
							
								<linearGradient id="SVGID_12_" gradientUnits="userSpaceOnUse" x1="1328.6937" y1="-694.4341" x2="1329.5413" y2="-694.4341" gradientTransform="matrix(0.9995 -3.280000e-02 3.280000e-02 0.9995 32.2667 -171.87)">
								<stop  offset="0" style="stop-color:#58258C"/>
								<stop  offset="1" style="stop-color:#151B4E"/>
							</linearGradient>
							<path class="st15" d="M1337.9-910.2c0.2-0.1,0.4,0,0.4,0.2v0.4c0,0.3-0.2,0.6-0.4,0.7c-0.2,0.1-0.4,0-0.4-0.2v-0.4
								C1337.5-909.7,1337.7-910.1,1337.9-910.2z"/>
						</g>
						<g>
							
								<linearGradient id="SVGID_13_" gradientUnits="userSpaceOnUse" x1="1330.1404" y1="-695.2843" x2="1330.9879" y2="-695.2843" gradientTransform="matrix(0.9995 -3.280000e-02 3.280000e-02 0.9995 32.2667 -171.87)">
								<stop  offset="0" style="stop-color:#58258C"/>
								<stop  offset="1" style="stop-color:#151B4E"/>
							</linearGradient>
							<path class="st16" d="M1339.4-911.1c0.2-0.1,0.4,0,0.4,0.2v0.4c0,0.3-0.2,0.6-0.4,0.7c-0.2,0.1-0.4,0-0.4-0.2v-0.4
								C1338.9-910.6,1339.1-911,1339.4-911.1z"/>
						</g>
						<g>
							
								<linearGradient id="SVGID_14_" gradientUnits="userSpaceOnUse" x1="1331.5887" y1="-696.1379" x2="1332.4347" y2="-696.1379" gradientTransform="matrix(0.9995 -3.280000e-02 3.280000e-02 0.9995 32.2667 -171.87)">
								<stop  offset="0" style="stop-color:#58258C"/>
								<stop  offset="1" style="stop-color:#151B4E"/>
							</linearGradient>
							<path class="st17" d="M1340.8-912c0.2-0.1,0.4,0,0.4,0.2v0.4c0,0.3-0.2,0.6-0.4,0.7c-0.2,0.1-0.4,0-0.4-0.2v-0.4
								C1340.4-911.5,1340.5-911.8,1340.8-912z"/>
						</g>
						<g>
							
								<linearGradient id="SVGID_15_" gradientUnits="userSpaceOnUse" x1="1333.0354" y1="-696.9915" x2="1333.8813" y2="-696.9915" gradientTransform="matrix(0.9995 -3.280000e-02 3.280000e-02 0.9995 32.2667 -171.87)">
								<stop  offset="0" style="stop-color:#58258C"/>
								<stop  offset="1" style="stop-color:#151B4E"/>
							</linearGradient>
							<path class="st18" d="M1342.2-912.9c0.2-0.1,0.4,0,0.4,0.2v0.4c0,0.3-0.2,0.6-0.4,0.7c-0.2,0.1-0.4,0-0.4-0.2v-0.4
								C1341.8-912.4,1342-912.7,1342.2-912.9z"/>
						</g>
						<g>
							
								<linearGradient id="SVGID_16_" gradientUnits="userSpaceOnUse" x1="1334.4821" y1="-697.7451" x2="1335.328" y2="-697.7451" gradientTransform="matrix(0.9995 -3.280000e-02 3.280000e-02 0.9995 32.2667 -171.87)">
								<stop  offset="0" style="stop-color:#58258C"/>
								<stop  offset="1" style="stop-color:#151B4E"/>
							</linearGradient>
							<path class="st19" d="M1343.6-913.7c0.2-0.1,0.4,0,0.4,0.2v0.4c0,0.3-0.2,0.6-0.4,0.7c-0.2,0.1-0.4,0-0.4-0.2v-0.4
								C1343.2-913.3,1343.4-913.6,1343.6-913.7z"/>
						</g>
						<g>
							
								<linearGradient id="SVGID_17_" gradientUnits="userSpaceOnUse" x1="1335.9288" y1="-698.5986" x2="1336.7747" y2="-698.5986" gradientTransform="matrix(0.9995 -3.280000e-02 3.280000e-02 0.9995 32.2667 -171.87)">
								<stop  offset="0" style="stop-color:#58258C"/>
								<stop  offset="1" style="stop-color:#151B4E"/>
							</linearGradient>
							<path class="st20" d="M1345-914.6c0.2-0.1,0.4,0,0.4,0.2v0.4c0,0.3-0.2,0.6-0.4,0.7c-0.2,0.1-0.4,0-0.4-0.2v-0.4
								C1344.6-914.2,1344.8-914.5,1345-914.6z"/>
						</g>
						<g>
							
								<linearGradient id="SVGID_18_" gradientUnits="userSpaceOnUse" x1="1337.3756" y1="-699.4522" x2="1338.223" y2="-699.4522" gradientTransform="matrix(0.9995 -3.280000e-02 3.280000e-02 0.9995 32.2667 -171.87)">
								<stop  offset="0" style="stop-color:#58258C"/>
								<stop  offset="1" style="stop-color:#151B4E"/>
							</linearGradient>
							<path class="st21" d="M1346.4-915.5c0.2-0.1,0.4,0,0.4,0.2v0.4c0,0.3-0.2,0.6-0.4,0.7c-0.2,0.1-0.4,0-0.4-0.2v-0.4
								C1346-915,1346.2-915.4,1346.4-915.5z"/>
						</g>
						<g>
							
								<linearGradient id="SVGID_19_" gradientUnits="userSpaceOnUse" x1="1338.8239" y1="-700.3026" x2="1339.6698" y2="-700.3026" gradientTransform="matrix(0.9995 -3.280000e-02 3.280000e-02 0.9995 32.2667 -171.87)">
								<stop  offset="0" style="stop-color:#58258C"/>
								<stop  offset="1" style="stop-color:#151B4E"/>
							</linearGradient>
							<path class="st22" d="M1347.9-916.4c0.2-0.1,0.4,0,0.4,0.2v0.4c0,0.3-0.2,0.6-0.4,0.7c-0.2,0.1-0.4,0-0.4-0.2v-0.4
								C1347.5-915.9,1347.6-916.3,1347.9-916.4z"/>
						</g>
						<g>
							
								<linearGradient id="SVGID_20_" gradientUnits="userSpaceOnUse" x1="1340.2705" y1="-701.1561" x2="1341.1163" y2="-701.1561" gradientTransform="matrix(0.9995 -3.280000e-02 3.280000e-02 0.9995 32.2667 -171.87)">
								<stop  offset="0" style="stop-color:#58258C"/>
								<stop  offset="1" style="stop-color:#151B4E"/>
							</linearGradient>
							<path class="st23" d="M1349.3-917.3c0.2-0.1,0.4,0,0.4,0.2v0.4c0,0.3-0.2,0.6-0.4,0.7c-0.2,0.1-0.4,0-0.4-0.2v-0.4
								C1348.9-916.8,1349.1-917.1,1349.3-917.3z"/>
						</g>
					</g>
					<g>
						<g>
							
								<linearGradient id="SVGID_21_" gradientUnits="userSpaceOnUse" x1="1353.7148" y1="-691.8809" x2="1354.5623" y2="-691.8809" gradientTransform="matrix(0.9999 -1.620000e-02 1.620000e-02 0.9999 15.5722 -208.901)">
								<stop  offset="0" style="stop-color:#58258C"/>
								<stop  offset="1" style="stop-color:#151B4E"/>
							</linearGradient>
							<path class="st24" d="M1358.4-923.3c0.2-0.1,0.4,0,0.4,0.2v0.4c0,0.3-0.2,0.6-0.4,0.7c-0.2,0.1-0.4,0-0.4-0.2v-0.4
								C1358-922.9,1358.1-923.2,1358.4-923.3z"/>
						</g>
						<g>
							
								<linearGradient id="SVGID_22_" gradientUnits="userSpaceOnUse" x1="1355.1625" y1="-692.7581" x2="1356.0099" y2="-692.7581" gradientTransform="matrix(0.9999 -1.620000e-02 1.620000e-02 0.9999 15.5722 -208.901)">
								<stop  offset="0" style="stop-color:#58258C"/>
								<stop  offset="1" style="stop-color:#151B4E"/>
							</linearGradient>
							<path class="st25" d="M1359.8-924.2c0.2-0.1,0.4,0,0.4,0.2v0.4c0,0.3-0.2,0.6-0.4,0.7c-0.2,0.1-0.4,0-0.4-0.2v-0.4
								C1359.4-923.7,1359.6-924.1,1359.8-924.2z"/>
						</g>
						<g>
							
								<linearGradient id="SVGID_23_" gradientUnits="userSpaceOnUse" x1="1356.6099" y1="-693.6353" x2="1357.4557" y2="-693.6353" gradientTransform="matrix(0.9999 -1.620000e-02 1.620000e-02 0.9999 15.5722 -208.901)">
								<stop  offset="0" style="stop-color:#58258C"/>
								<stop  offset="1" style="stop-color:#151B4E"/>
							</linearGradient>
							<path class="st26" d="M1361.2-925.1c0.2-0.1,0.4,0,0.4,0.2v0.4c0,0.3-0.2,0.6-0.4,0.7c-0.2,0.1-0.4,0-0.4-0.2v-0.4
								C1360.8-924.6,1361-924.9,1361.2-925.1z"/>
						</g>
						<g>
							
								<linearGradient id="SVGID_24_" gradientUnits="userSpaceOnUse" x1="1358.0564" y1="-694.4108" x2="1358.9025" y2="-694.4108" gradientTransform="matrix(0.9999 -1.620000e-02 1.620000e-02 0.9999 15.5722 -208.901)">
								<stop  offset="0" style="stop-color:#58258C"/>
								<stop  offset="1" style="stop-color:#151B4E"/>
							</linearGradient>
							<path class="st27" d="M1362.7-925.9c0.2-0.1,0.4,0,0.4,0.2v0.4c0,0.3-0.2,0.6-0.4,0.7c-0.2,0.1-0.4,0-0.4-0.2v-0.4
								C1362.3-925.5,1362.4-925.8,1362.7-925.9z"/>
						</g>
						<g>
							
								<linearGradient id="SVGID_25_" gradientUnits="userSpaceOnUse" x1="1359.5038" y1="-695.288" x2="1360.3497" y2="-695.288" gradientTransform="matrix(0.9999 -1.620000e-02 1.620000e-02 0.9999 15.5722 -208.901)">
								<stop  offset="0" style="stop-color:#58258C"/>
								<stop  offset="1" style="stop-color:#151B4E"/>
							</linearGradient>
							<path class="st28" d="M1364.1-926.8c0.2-0.1,0.4,0,0.4,0.2v0.4c0,0.3-0.2,0.6-0.4,0.7c-0.2,0.1-0.4,0-0.4-0.2v-0.4
								C1363.7-926.3,1363.9-926.6,1364.1-926.8z"/>
						</g>
						<g>
							
								<linearGradient id="SVGID_26_" gradientUnits="userSpaceOnUse" x1="1360.95" y1="-696.0652" x2="1361.7958" y2="-696.0652" gradientTransform="matrix(0.9999 -1.620000e-02 1.620000e-02 0.9999 15.5722 -208.901)">
								<stop  offset="0" style="stop-color:#58258C"/>
								<stop  offset="1" style="stop-color:#151B4E"/>
							</linearGradient>
							<path class="st29" d="M1365.5-927.6c0.2-0.1,0.4,0,0.4,0.2v0.4c0,0.3-0.2,0.6-0.4,0.7c-0.2,0.1-0.4,0-0.4-0.2v-0.4
								C1365.1-927.2,1365.3-927.5,1365.5-927.6z"/>
						</g>
						<g>
							
								<linearGradient id="SVGID_27_" gradientUnits="userSpaceOnUse" x1="1362.3965" y1="-696.9407" x2="1363.244" y2="-696.9407" gradientTransform="matrix(0.9999 -1.620000e-02 1.620000e-02 0.9999 15.5722 -208.901)">
								<stop  offset="0" style="stop-color:#58258C"/>
								<stop  offset="1" style="stop-color:#151B4E"/>
							</linearGradient>
							<path class="st30" d="M1367-928.5c0.2-0.1,0.4,0,0.4,0.2v0.4c0,0.3-0.2,0.6-0.4,0.7c-0.2,0.1-0.4,0-0.4-0.2v-0.4
								C1366.6-928,1366.7-928.4,1367-928.5z"/>
						</g>
						<g>
							
								<linearGradient id="SVGID_28_" gradientUnits="userSpaceOnUse" x1="1363.8452" y1="-697.8179" x2="1364.6913" y2="-697.8179" gradientTransform="matrix(0.9999 -1.620000e-02 1.620000e-02 0.9999 15.5722 -208.901)">
								<stop  offset="0" style="stop-color:#58258C"/>
								<stop  offset="1" style="stop-color:#151B4E"/>
							</linearGradient>
							<path class="st31" d="M1368.4-929.4c0.2-0.1,0.4,0,0.4,0.2v0.4c0,0.3-0.2,0.6-0.4,0.7c-0.2,0.1-0.4,0-0.4-0.2v-0.4
								C1368-928.9,1368.2-929.2,1368.4-929.4z"/>
						</g>
						<g>
							
								<linearGradient id="SVGID_29_" gradientUnits="userSpaceOnUse" x1="1365.2914" y1="-698.5952" x2="1366.1375" y2="-698.5952" gradientTransform="matrix(0.9999 -1.620000e-02 1.620000e-02 0.9999 15.5722 -208.901)">
								<stop  offset="0" style="stop-color:#58258C"/>
								<stop  offset="1" style="stop-color:#151B4E"/>
							</linearGradient>
							<path class="st32" d="M1369.8-930.2c0.2-0.1,0.4,0,0.4,0.2v0.4c0,0.3-0.2,0.6-0.4,0.7c-0.2,0.1-0.4,0-0.4-0.2v-0.4
								C1369.4-929.8,1369.6-930.1,1369.8-930.2z"/>
						</g>
					</g>
				</g>
			</g>
		</g>
	</g>
</g>
<path class="st5" d="M1599.9,0c-126.1,90.1-270.1,159.2-422.7,202.8c-48.2,13.8-98,25.1-148.5,24.3c-138-2.2-252.7-91.8-376.4-147.9
	c-201.7-91.4-449-93-652.2-4.3v162h1599.9V0z"/>
</svg>
